<svg width="351" height="349" viewBox="0 0 351 349" fill="none" xmlns="http://www.w3.org/2000/svg">
<path d="M278.589 104.385C278.589 104.385 275.66 102.488 275.144 96.8041C274.628 91.1206 281.352 86.9847 287.21 88.1914C293.069 89.398 299.268 93.0093 297.545 101.115C295.823 109.22 286.677 109.675 283.844 108.407C281.859 107.402 280.078 106.038 278.589 104.385Z" fill="#2B2B2B" stroke="#2B2B2B" stroke-linecap="round" stroke-linejoin="round"/>
<path d="M281.387 93.1842C281.387 93.1842 285.007 89.9139 287.42 90.7708" stroke="#2B2B2B" stroke-linecap="round" stroke-linejoin="round"/>
<path d="M292.448 92.747C292.494 93.0804 292.437 93.4201 292.285 93.7204C292.133 94.0208 291.893 94.2676 291.597 94.4278C291.301 94.588 290.963 94.654 290.629 94.6168C290.294 94.5797 289.979 94.4413 289.725 94.2201C289.471 93.9989 289.291 93.7054 289.209 93.3791C289.126 93.0527 289.145 92.7089 289.264 92.3937C289.382 92.0785 289.594 91.807 289.871 91.6154C290.147 91.4238 290.476 91.3214 290.813 91.3217C291.218 91.2953 291.618 91.4303 291.924 91.6973C292.23 91.9643 292.419 92.3417 292.448 92.747Z" fill="#F4F4F4" stroke="#2B2B2B" stroke-linecap="round" stroke-linejoin="round"/>
<path d="M279.612 93.3852C279.612 93.9011 279.043 94.3121 278.335 94.3121C277.627 94.3121 277.05 93.9011 277.05 93.3852C277.05 92.8693 277.627 92.4584 278.335 92.4584C279.043 92.4584 279.612 92.8781 279.612 93.3852Z" fill="#F4F4F4" stroke="#2B2B2B" stroke-linecap="round" stroke-linejoin="round"/>
<path d="M290.918 88.7685C290.918 88.7685 287.988 86.8711 287.473 81.1876C286.957 75.5041 293.672 71.3595 299.53 72.5661C305.389 73.7728 311.597 77.3927 309.874 85.4896C308.152 93.5864 298.997 94.0498 296.164 92.7907C294.183 91.7836 292.405 90.4201 290.918 88.7685Z" fill="#2B2B2B" stroke="#2B2B2B" stroke-linecap="round" stroke-linejoin="round"/>
<path d="M293.672 77.5676C293.672 77.5676 297.292 74.2886 299.705 75.1543" stroke="#2B2B2B" stroke-linecap="round" stroke-linejoin="round"/>
<path d="M303.098 78.5469C304.006 78.5469 304.742 77.9088 304.742 77.1217C304.742 76.3345 304.006 75.6964 303.098 75.6964C302.19 75.6964 301.454 76.3345 301.454 77.1217C301.454 77.9088 302.19 78.5469 303.098 78.5469Z" fill="#F4F4F4" stroke="#2B2B2B" stroke-linecap="round" stroke-linejoin="round"/>
<path d="M291.906 77.7687C291.906 78.2758 291.329 78.6955 290.62 78.6955C289.912 78.6955 289.335 78.2758 289.335 77.7687C289.335 77.2615 289.912 76.8418 290.62 76.8418C291.329 76.8418 291.906 77.2528 291.906 77.7687Z" fill="#F4F4F4" stroke="#2B2B2B" stroke-linecap="round" stroke-linejoin="round"/>
<path d="M313.005 62.668C312.606 62.6699 312.217 62.5443 311.894 62.3095C311.688 62.164 311.513 61.9793 311.379 61.7659C311.244 61.5526 311.153 61.3147 311.111 61.0661C311.069 60.8175 311.076 60.563 311.132 60.3172C311.189 60.0715 311.293 59.8392 311.439 59.6339L319.685 48.0657C319.99 47.6763 320.434 47.4196 320.924 47.3489C321.413 47.2781 321.912 47.3989 322.315 47.6859C322.718 47.973 322.995 48.4044 323.088 48.8904C323.181 49.3764 323.083 49.8796 322.815 50.2954L314.605 61.8548C314.425 62.1108 314.185 62.3187 313.906 62.4605C313.627 62.6023 313.317 62.6735 313.005 62.668Z" fill="#F4F4F4" stroke="#2B2B2B" stroke-linecap="round" stroke-linejoin="round"/>
<path d="M315.934 56.0839L253.485 47.9084L350 99.882L315.934 56.0839Z" fill="#285E67" stroke="#2B2B2B" stroke-linecap="round" stroke-linejoin="round"/>
<path d="M313.888 57.4304L284.482 57.2818" stroke="#2B2B2B" stroke-linecap="round" stroke-linejoin="round"/>
<path d="M312.401 60.4471L307.889 64.6354" stroke="#2B2B2B" stroke-linecap="round" stroke-linejoin="round"/>
<path d="M316.738 59.6863L322.597 69.5844" stroke="#2B2B2B" stroke-linecap="round" stroke-linejoin="round"/>
<path d="M323.795 72.8896L330.099 85.0436" stroke="#2B2B2B" stroke-linecap="round" stroke-linejoin="round"/>
<path d="M287.481 65.8333L296.033 62.9828" stroke="#2B2B2B" stroke-linecap="round" stroke-linejoin="round"/>
<path d="M258.076 50.2342L277.88 52.4814" stroke="#2B2B2B" stroke-linecap="round" stroke-linejoin="round"/>
<path d="M342.104 95.6936L333.999 84.143" stroke="#2B2B2B" stroke-linecap="round" stroke-linejoin="round"/>
<path d="M235.744 102.059L256.37 166.309L310.845 125.099C308.95 122.13 306.529 119.531 303.701 117.431C301.05 115.691 297.835 115.028 294.712 115.577L293.925 111.879C290.899 109.862 287.715 108.093 284.403 106.589C280.434 105.006 275.152 102.628 274.357 103.423C273.763 103.921 273.015 104.199 272.241 104.21C272.241 104.21 270.125 101.307 269.067 100.774C268.009 100.24 257.437 99.4535 253.205 99.4535C250.825 99.3844 248.492 100.131 246.595 101.57C246.595 101.57 243.972 99.4535 242.634 99.4535C241.296 99.4535 235.744 102.059 235.744 102.059Z" fill="#285E67" stroke="#2B2B2B" stroke-linecap="round" stroke-linejoin="round"/>
<path d="M268.542 102.593C267.484 102.059 256.904 101.272 252.681 101.272C250.3 101.203 247.968 101.95 246.07 103.388C246.07 103.388 243.447 101.272 242.101 101.272C241.13 101.272 237.86 102.706 236.207 103.458L256.379 166.309L309.673 125.974C307.902 123.389 305.706 121.125 303.177 119.276C300.525 117.537 297.311 116.874 294.188 117.422L293.392 113.724C290.37 111.704 287.188 109.935 283.879 108.433C279.909 106.851 274.619 104.464 273.832 105.259C273.24 105.762 272.492 106.043 271.716 106.055C271.716 106.055 269.6 103.117 268.542 102.593Z" fill="#FCE2D7" stroke="#2B2B2B" stroke-linecap="round" stroke-linejoin="round"/>
<path d="M303.176 119.25L298.009 125.082" stroke="#2B2B2B" stroke-linecap="round" stroke-linejoin="round"/>
<path d="M290.244 130.608L288.426 132.978" stroke="#2B2B2B" stroke-linecap="round" stroke-linejoin="round"/>
<path d="M294.905 124.522L291.407 129.087" stroke="#2B2B2B" stroke-linecap="round" stroke-linejoin="round"/>
<path d="M273.325 112.998L272.634 115.219" stroke="#2B2B2B" stroke-linecap="round" stroke-linejoin="round"/>
<path d="M275.17 107.043L274.059 110.628" stroke="#2B2B2B" stroke-linecap="round" stroke-linejoin="round"/>
<path d="M246.07 103.388L247.828 112.963" stroke="#2B2B2B" stroke-linecap="round" stroke-linejoin="round"/>
<path d="M250.643 109.019L251.491 116.906" stroke="#2B2B2B" stroke-linecap="round" stroke-linejoin="round"/>
<path d="M217.268 164.106L209.827 165.994L208.778 161.824L206.95 154.627L203.61 141.433L201.8 134.237L198.46 121.042L196.65 113.846L193.301 100.643L191.482 93.4552L188.151 80.252L186.332 73.0645L183.831 63.1839L191.281 61.304L191.989 64.102L193.808 71.2982L197.148 84.4927L198.967 91.6889L202.298 104.892L204.117 112.08L207.457 125.283L209.276 132.479L212.607 145.674L214.426 152.861L217.268 164.106Z" fill="#285E67" stroke="#2B2B2B" stroke-linecap="round" stroke-linejoin="round"/>
<path d="M202.298 104.892L196.65 113.846L198.46 121.042L204.117 112.08L202.298 104.892ZM197.148 84.4928L191.482 93.4552L193.301 100.643L198.967 91.689L197.148 84.4928ZM207.457 125.283L201.8 134.237L203.61 141.433L209.276 132.479L207.457 125.283ZM191.989 64.0758L186.332 73.0383L188.151 80.2257L193.773 71.2982L191.989 64.0758ZM206.959 154.601L212.607 145.647L214.426 152.835L208.778 161.824L206.959 154.601Z" fill="#2B2B2B"/>
<path d="M274.269 340.802H189.226C189.226 340.802 188.431 338.424 193.196 337.103C197.961 335.783 218.833 328.106 220.949 324.941C223.065 321.775 223.861 321.767 223.065 318.593C222.269 315.419 217.25 309.849 218.571 305.643C219.891 301.437 222.278 297.703 222.54 294.276C222.742 292.385 222.469 290.473 221.745 288.715C218.747 287.022 215.908 285.061 213.263 282.856C205.096 276.194 193.861 263.865 193.152 246.132C192.094 218.108 206.898 185.065 201.608 156.778C196.318 128.492 189.707 123.193 192.357 120.054H271.051C273.675 123.228 267.082 128.518 261.8 156.778C256.519 185.039 271.314 218.108 270.256 246.132C269.591 263.847 258.355 276.176 250.145 282.856C247.498 285.058 244.66 287.019 241.663 288.715C240.939 290.473 240.666 292.385 240.868 294.276C241.139 297.703 243.491 301.411 244.837 305.643C246.184 309.875 241.139 315.419 240.343 318.593C239.547 321.767 240.343 321.767 242.459 324.941C244.575 328.115 265.455 335.783 270.221 337.103C274.986 338.424 274.269 340.802 274.269 340.802Z" stroke="#2B2B2B" stroke-linecap="round" stroke-linejoin="round"/>
<path d="M274.269 340.802H189.226C189.226 340.802 188.431 338.424 193.196 337.103C197.961 335.783 218.833 328.106 220.949 324.941C223.065 321.775 223.861 321.767 223.065 318.593C222.269 315.419 217.25 309.849 218.571 305.643C219.891 301.437 222.278 297.703 222.54 294.276C222.742 292.385 222.469 290.473 221.745 288.715C218.747 287.022 215.908 285.061 213.263 282.856H250.224C247.577 285.058 244.738 287.019 241.742 288.715C241.018 290.473 240.745 292.385 240.946 294.276C241.217 297.703 243.569 301.411 244.916 305.643C246.263 309.875 241.217 315.419 240.422 318.593C239.626 321.767 240.422 321.767 242.538 324.941C244.654 328.115 265.534 335.783 270.299 337.103C275.065 338.424 274.269 340.802 274.269 340.802Z" fill="#F4F4F4" stroke="#2B2B2B" stroke-linecap="round" stroke-linejoin="round"/>
<path d="M213.998 330.668C209.774 332.919 205.343 334.761 200.768 336.168C194.376 337.917 199.894 339.289 205.822 337.357C211.75 335.425 212.065 333.938 218.308 333.938C224.551 333.938 221.753 331.236 218.614 331.394C215.475 331.551 215.633 329.627 213.998 330.668Z" fill="#F4F4F4"/>
<path d="M236.26 291.137C236.26 291.137 224.263 293.218 226.536 292.886C228.81 292.553 232.657 294.713 237.239 293.76C238.622 295.409 239.421 297.468 239.512 299.618C239.845 303.527 231.057 300.598 227.472 307.759C223.887 314.92 230.095 315.567 232.718 317.517C235.341 319.467 235.971 321.102 233.365 322.763C230.76 324.425 229.264 318.732 226.86 321.137C224.455 323.542 228.163 326.34 230.436 326.34C232.71 326.34 237.274 325.369 237.921 321.461C238.568 317.552 242.476 313.652 242.809 307.794C242.939 305.531 242.766 303.261 242.293 301.044C241.515 297.616 239.337 295.596 239.337 292.632C239.337 289.668 237.422 290.63 236.26 291.137Z" fill="#F4F4F4"/>
<path d="M243.412 327.336C243.532 327.612 243.592 327.909 243.59 328.209C243.588 328.509 243.523 328.805 243.399 329.078C243.276 329.352 243.096 329.596 242.873 329.796C242.649 329.996 242.386 330.147 242.101 330.239C239.932 331.114 218.614 331.394 218.614 331.394C218.614 331.394 232.683 333.142 240.474 332.268C248.265 331.394 245.721 329.365 247.723 330.091C249.725 330.817 252.506 332.994 250.477 334.734C248.449 336.474 251.491 338.065 236.268 335.748C221.045 333.431 216.7 335.888 213.797 337.339C210.894 338.791 192.628 339.963 192.628 339.963H270.92C270.92 339.963 269.469 337.934 265.56 337.06C261.652 336.185 260.917 337.637 258.014 337.06C255.111 336.483 256.86 336.185 256.134 334.436C255.409 332.688 243.412 327.336 243.412 327.336Z" fill="#F4F4F4"/>
<path d="M233.497 295.413C233.497 295.413 230.926 295.15 227.708 294.766C224.49 294.381 221.01 304.296 221.526 306.229C222.042 308.161 223.843 303.78 227.577 301.979C231.311 300.178 235.446 302.364 235.945 298.246C236.443 294.127 233.497 295.413 233.497 295.413Z" fill="#F4F4F4"/>
<path d="M230.279 317.683C230.279 317.683 224.622 311.632 223.843 315.112C223.065 318.593 232.211 323.48 232.587 321.032C232.963 318.584 230.279 317.683 230.279 317.683Z" fill="#F4F4F4"/>
<path d="M235.105 326.506C235.105 326.506 230.497 327.992 227.525 326.803C224.552 325.614 223.957 326.209 220.984 327.844C218.011 329.479 219.498 330.817 228.416 330.519C237.335 330.222 242.24 328.587 241.051 327.398C239.862 326.209 240.159 324.871 235.105 326.506Z" fill="#F4F4F4"/>
<path d="M201.887 122.153H254.001" stroke="#2B2B2B" stroke-linecap="round" stroke-linejoin="round"/>
<path d="M194.516 122.153H199.579" stroke="#2B2B2B" stroke-linecap="round" stroke-linejoin="round"/>
<path d="M261.835 156.787C262.622 152.608 263.436 148.918 264.24 145.682H199.247C200.06 148.935 200.864 152.608 201.651 156.787C206.941 185.082 192.129 218.125 193.187 246.15C194.245 274.174 221.754 288.715 221.754 288.715C221.754 288.715 228.18 290.044 241.751 288.715C241.751 288.715 269.25 274.174 270.308 246.15C271.366 218.125 256.554 185.082 261.835 156.787Z" fill="#F4F4F4" stroke="#2B2B2B" stroke-linecap="round" stroke-linejoin="round"/>
<path opacity="0.19" d="M262.386 336.701C257.63 335.39 236.749 327.791 234.633 324.652C232.517 321.513 231.722 321.513 232.517 318.365C233.313 315.217 238.332 309.726 237.012 305.538C235.691 301.35 233.304 297.669 233.042 294.276C232.84 292.405 233.114 290.513 233.838 288.776C236.831 287.095 239.669 285.152 242.319 282.97C250.486 276.368 261.722 264.153 262.43 246.604C263.488 218.851 248.685 186.105 253.975 158.09C259.265 130.075 265.875 124.863 263.226 121.68H268.052C270.676 124.828 264.083 130.066 258.801 158.09C253.52 186.114 268.271 218.886 267.222 246.639C266.557 264.188 255.321 276.368 247.154 283.005C244.505 285.187 241.666 287.13 238.673 288.811C237.949 290.548 237.675 292.44 237.877 294.311C238.14 297.712 240.5 301.385 241.847 305.573C243.194 309.761 238.14 315.261 237.353 318.4C236.566 321.539 237.353 321.548 239.469 324.687C241.585 327.826 262.465 335.425 267.222 336.701C271.978 337.978 271.191 340.374 271.191 340.374H266.347C266.347 340.374 267.152 338.039 262.386 336.701Z" fill="#2A2A2A"/>
<path d="M107.034 170.567C107.034 170.567 103.186 165.137 97.7565 164.447C93.8243 164.11 89.8641 164.336 85.996 165.12C85.996 165.12 88.4793 160.372 90.7439 158.999C92.5023 157.996 94.3151 157.091 96.1739 156.289C94.9422 153.801 93.0674 151.687 90.7439 150.168C86.8966 147.685 80.5573 143.837 80.5573 143.837C80.5573 143.837 88.7066 144.511 92.5539 145.647C95.3848 146.578 98.1149 147.791 100.703 149.267C100.703 149.267 94.8186 142.928 90.0619 138.407C85.3052 133.887 75.3547 125.501 75.3547 125.501L67.8612 120.727C72.7862 122.217 77.6284 123.969 82.3673 125.974C88.488 128.693 101.831 137.516 101.831 137.516C101.831 137.516 96.1739 127.985 90.0619 119.853C83.9499 111.721 71.5074 101.29 71.5074 101.29L97.9839 121.401L87.3513 104.429L82.822 99.8994C82.822 99.8994 94.1366 106.02 97.7565 110.759C101.376 115.499 110.208 125.694 110.208 125.694C110.208 125.694 98.6659 89.9489 93.4633 81.5723C88.2607 73.1956 79.6567 64.6004 79.6567 64.6004C79.6567 64.6004 94.3639 69.5756 98.2112 71.8403C102.059 74.105 103.414 75.4603 103.868 76.1423C104.323 76.8243 102.513 66.6377 96.6286 54.1952C90.7439 41.7526 88.0246 35.186 88.0246 35.186C88.0246 35.186 98.4648 42.0324 103.414 51.0474C108.363 60.0623 114.956 74.3848 114.956 74.3848C114.956 74.3848 107.961 36.1391 104.551 28.9166C101.14 21.6942 94.3639 11.7261 94.3639 11.7261C94.3639 11.7261 111.108 24.6234 114.475 39.7853L117.867 54.9384C117.867 54.9384 114.728 37.7042 112.455 22.997C110.182 8.2898 109.744 1.72315 109.744 1.04113C109.744 0.359107 115.629 8.28106 119.022 15.7483C121.535 21.6388 123.357 27.8006 124.452 34.1105C124.906 36.5937 123.997 25.9612 125.58 18.4939C127.162 11.0266 128.526 6.72465 128.754 5.37809C128.981 4.03154 131.692 18.4939 132.374 29.8172C133.056 41.1406 132.819 57.8763 132.819 57.8763C132.819 57.8763 140.514 42.2598 142.097 38.4125C143.679 34.5652 146.853 30.543 147.081 29.5899C146.461 36.2006 145.409 42.7638 143.933 49.2374C141.896 57.614 140.995 61.234 140.995 61.234L141.222 67.1186C141.222 67.1186 155.213 40.887 160.459 32.7202C165.705 24.5534 174.449 17.5583 174.449 17.5583C174.449 17.5583 173.575 22.5423 167.454 39.7415C163.262 51.458 157.957 62.7455 151.61 73.4492C150.027 75.9412 147.763 80.4443 147.089 81.8258C146.416 83.2073 147.535 92.6857 147.535 92.6857C147.535 92.6857 159.777 85.4458 169.264 80.9165C178.751 76.3871 196.186 73.2306 196.186 73.2306C196.186 73.2306 175.376 81.5985 168.809 88.1651C162.243 94.7318 148.445 105.583 148.445 105.583L148.672 115.315C148.672 115.315 164.962 102.872 176.049 98.1157C187.136 93.359 195.058 92.4584 195.058 92.4584L165.871 112.858C158.404 118.06 149.8 124.854 149.8 124.854C149.8 124.854 167.909 116.032 182.389 115.577C182.389 115.577 157.031 131.412 154.557 135.032C152.082 138.652 148.217 142.727 147.763 143.409C147.308 144.091 159.532 139.334 166.545 137.524C171.39 136.333 176.301 135.425 181.252 134.805C174.085 136.669 167.286 139.731 161.141 143.864C150.508 150.859 146.372 152.31 145.271 153.631L144.169 154.951C144.169 154.951 167.48 146.574 173.137 145.219C177.005 144.415 180.98 144.262 184.898 144.764C184.898 144.764 168.897 147.195 161.508 154.383C154.12 161.57 144.405 170.646 133.877 170.052C123.35 169.457 117.474 169.457 115.437 169.23C113.399 169.002 107.034 170.567 107.034 170.567Z" fill="#285E67" stroke="#2B2B2B" stroke-miterlimit="10"/>
<path opacity="0.2" d="M107.034 170.567C107.034 170.567 103.186 165.137 97.7565 164.447C93.8243 164.11 89.8641 164.336 85.996 165.12C85.996 165.12 88.4793 160.372 90.7439 158.999C92.5023 157.996 94.3151 157.091 96.1739 156.289C94.9422 153.801 93.0674 151.687 90.7439 150.168C86.8966 147.685 80.5573 143.837 80.5573 143.837C80.5573 143.837 88.7066 144.511 92.5539 145.647C95.3848 146.578 98.1149 147.791 100.703 149.267C100.703 149.267 94.8186 142.928 90.0619 138.407C85.3052 133.887 75.3547 125.501 75.3547 125.501L67.8612 120.727C72.7862 122.217 77.6284 123.969 82.3673 125.974C88.488 128.693 101.831 137.516 101.831 137.516C101.831 137.516 96.1739 127.985 90.0619 119.853C83.9499 111.721 71.5074 101.29 71.5074 101.29L97.9839 121.401L87.3513 104.429L82.822 99.8994C82.822 99.8994 94.1366 106.02 97.7565 110.759C101.376 115.499 110.208 125.694 110.208 125.694C110.208 125.694 98.6659 89.9489 93.4633 81.5723C88.2607 73.1956 79.6567 64.6004 79.6567 64.6004C79.6567 64.6004 94.3639 69.5756 98.2112 71.8403C102.059 74.105 103.414 75.4603 103.868 76.1423C104.323 76.8243 102.513 66.6377 96.6286 54.1952C90.7439 41.7526 88.0246 35.186 88.0246 35.186C88.0246 35.186 98.4648 42.0324 103.414 51.0474C108.363 60.0623 114.956 74.3848 114.956 74.3848C114.956 74.3848 107.961 36.1391 104.551 28.9166C101.14 21.6942 94.3639 11.7261 94.3639 11.7261C94.3639 11.7261 111.108 24.6234 114.475 39.7853L117.867 54.9384C117.867 54.9384 114.728 37.7042 112.455 22.997C110.182 8.2898 109.744 1.72315 109.744 1.04113C109.744 0.359107 115.629 8.28106 119.022 15.7483C121.535 21.6388 123.357 27.8006 124.452 34.1105C124.906 36.5937 123.997 25.9612 125.58 18.4939C127.162 11.0266 128.526 6.72465 128.754 5.37809C128.981 4.03154 131.692 18.4939 132.374 29.8172C133.056 41.1406 132.819 57.8763 132.819 57.8763C132.819 57.8763 140.514 42.2598 142.097 38.4125C143.679 34.5652 146.853 30.543 147.081 29.5899C146.461 36.2006 145.409 42.7638 143.933 49.2374C141.896 57.614 140.995 61.234 140.995 61.234L141.222 67.1186C141.222 67.1186 155.213 40.887 160.459 32.7202C165.705 24.5534 174.449 17.5583 174.449 17.5583C174.449 17.5583 173.575 22.5423 167.454 39.7415C163.262 51.458 157.957 62.7455 151.61 73.4492C150.027 75.9412 147.763 80.4443 147.089 81.8258C146.416 83.2073 147.535 92.6857 147.535 92.6857C147.535 92.6857 159.777 85.4458 169.264 80.9165C178.751 76.3871 196.186 73.2306 196.186 73.2306C196.186 73.2306 175.376 81.5985 168.809 88.1651C162.243 94.7318 148.445 105.583 148.445 105.583L148.672 115.315C148.672 115.315 164.962 102.872 176.049 98.1157C187.136 93.359 195.058 92.4584 195.058 92.4584L165.871 112.858C158.404 118.06 149.8 124.854 149.8 124.854C149.8 124.854 167.909 116.032 182.389 115.577C182.389 115.577 157.031 131.412 154.557 135.032C152.082 138.652 148.217 142.727 147.763 143.409C147.308 144.091 159.532 139.334 166.545 137.524C171.39 136.333 176.301 135.425 181.252 134.805C174.085 136.669 167.286 139.731 161.141 143.864C150.508 150.859 146.372 152.31 145.271 153.631L144.169 154.951C144.169 154.951 167.48 146.574 173.137 145.219C177.005 144.415 180.98 144.262 184.898 144.764C184.898 144.764 168.897 147.195 161.508 154.383C154.12 161.57 144.405 170.646 133.877 170.052C123.35 169.457 117.474 169.457 115.437 169.23C113.399 169.002 107.034 170.567 107.034 170.567Z" fill="#2A2A2A" stroke="#2B2B2B" stroke-miterlimit="10"/>
<path d="M107.034 170.567C107.034 170.567 103.186 165.137 97.7565 164.447C93.8243 164.11 89.8641 164.336 85.996 165.12C85.996 165.12 88.4793 160.372 90.7439 158.999C92.5023 157.996 94.3151 157.091 96.1739 156.289C94.9422 153.801 93.0674 151.687 90.7439 150.168C86.8966 147.685 80.5573 143.837 80.5573 143.837C80.5573 143.837 88.7066 144.511 92.5539 145.647C95.3848 146.578 98.1149 147.791 100.703 149.267C100.703 149.267 94.8186 142.928 90.0619 138.407C85.3052 133.887 75.3547 125.501 75.3547 125.501L67.8612 120.727C72.7862 122.217 77.6284 123.969 82.3673 125.974C88.488 128.693 101.831 137.516 101.831 137.516C101.831 137.516 96.1739 127.985 90.0619 119.853C83.9499 111.721 71.5074 101.29 71.5074 101.29L97.9839 121.401L87.3513 104.429L82.822 99.8994C82.822 99.8994 94.1366 106.02 97.7565 110.759C101.376 115.499 110.208 125.694 110.208 125.694C110.208 125.694 98.6659 89.9489 93.4633 81.5722C88.2607 73.1956 79.6567 64.6004 79.6567 64.6004C79.6567 64.6004 94.3639 69.5756 98.2112 71.8403C102.059 74.105 103.414 75.4603 103.868 76.1423C104.323 76.8243 102.513 66.6377 96.6286 54.1952C90.7439 41.7526 88.0246 35.186 88.0246 35.186C88.0246 35.186 98.4648 42.0324 103.414 51.0474C108.363 60.0623 114.956 74.3848 114.956 74.3848C114.956 74.3848 107.961 36.1391 104.551 28.9166C101.14 21.6942 94.3639 11.7261 94.3639 11.7261C94.3639 11.7261 111.108 24.6234 114.475 39.7853L117.867 54.9384C117.867 54.9384 114.728 37.7042 112.455 22.997C110.182 8.2898 109.744 1.72315 109.744 1.04113C109.744 0.359107 115.629 8.28106 119.022 15.7483C121.535 21.6388 123.357 27.8006 124.452 34.1105C124.906 36.5937 123.997 25.9612 125.58 18.4939C127.162 11.0266 128.526 6.72465 128.754 5.37809C128.981 4.03154 131.692 18.4939 132.374 29.8172C133.056 41.1406 132.819 57.8763 132.819 57.8763C132.819 57.8763 140.514 42.2598 142.097 38.4125C143.679 34.5652 146.853 30.543 147.081 29.5899C146.461 36.2006 145.409 42.7638 143.933 49.2374C141.896 57.614 140.995 61.234 140.995 61.234L141.222 67.1186C141.222 67.1186 155.213 40.887 160.459 32.7202C165.705 24.5534 174.449 17.5583 174.449 17.5583C174.449 17.5583 173.575 22.5423 167.454 39.7415C163.262 51.458 157.957 62.7455 151.61 73.4492C150.027 75.9412 147.763 80.4443 147.089 81.8258C146.416 83.2073 147.535 92.6857 147.535 92.6857C147.535 92.6857 159.777 85.4458 169.264 80.9165C178.751 76.3871 196.186 73.2306 196.186 73.2306C196.186 73.2306 175.376 81.5985 168.809 88.1651C162.243 94.7318 148.445 105.583 148.445 105.583L148.672 115.315C148.672 115.315 164.962 102.872 176.049 98.1157C187.136 93.359 195.058 92.4584 195.058 92.4584L165.871 112.858C158.404 118.06 149.8 124.854 149.8 124.854C149.8 124.854 167.909 116.032 182.389 115.577C182.389 115.577 157.031 131.412 154.557 135.032C152.082 138.652 148.217 142.727 147.763 143.409C147.308 144.091 159.532 139.334 166.545 137.524C171.39 136.333 176.301 135.425 181.252 134.805C174.085 136.669 167.286 139.731 161.141 143.864C150.508 150.859 146.372 152.31 145.271 153.631L144.169 154.951C144.169 154.951 167.48 146.574 173.137 145.219C177.005 144.415 180.98 144.262 184.898 144.764C184.898 144.764 168.897 147.195 161.508 154.383C154.12 161.57 144.405 170.646 133.877 170.052C123.35 169.457 117.474 169.457 115.437 169.23C113.399 169.002 107.034 170.567 107.034 170.567Z" stroke="#2B2B2B" stroke-linecap="round" stroke-linejoin="round"/>
<path d="M123.953 90.1238C123.953 90.1238 123.079 56.897 128.649 41.228C134.219 25.559 136.938 20.7935 136.938 20.7935C136.938 20.7935 147.579 50.3828 147.037 66.9875C146.495 83.5921 138.197 106.685 138.197 106.685L123.953 90.1238Z" fill="#285E67" stroke="#2B2B2B" stroke-linecap="round" stroke-linejoin="round"/>
<path d="M119.8 104.516C119.8 104.516 111.143 87.3694 112.586 67.5296C114.029 47.6897 116.197 38.8322 115.288 32.7027C114.379 26.5733 113.67 20.7935 113.67 20.7935C113.67 20.7935 124.854 45.154 132.435 63.9184C137.17 75.8929 139.085 88.797 138.031 101.631C137.847 102.715 132.435 111.371 132.435 111.371L128.649 121.112L119.8 104.516Z" fill="#285E67" stroke="#2B2B2B" stroke-linecap="round" stroke-linejoin="round"/>
<path d="M118.899 129.419C118.899 129.419 106.089 113.898 95.9815 100.73C89.3792 92.2532 82.1417 84.2908 74.3317 76.9117C74.3317 76.9117 89.4936 82.1581 98.15 90.4385C106.806 98.719 121.243 112.639 124.854 122.196C128.465 131.753 125.037 137.717 125.037 137.717L118.899 129.419Z" fill="#285E67" stroke="#2B2B2B" stroke-linecap="round" stroke-linejoin="round"/>
<path d="M136.221 123.823C136.221 123.823 148.462 103.616 157.154 82.4991C165.845 61.3826 172.849 52.1841 172.849 52.1841C172.849 52.1841 146.329 76.3696 141.275 85.4108C136.221 94.452 131.893 98.3955 129.908 107.961C127.923 117.527 130.45 129.436 130.634 130.337C130.817 131.237 136.221 123.823 136.221 123.823Z" fill="#285E67" stroke="#2B2B2B" stroke-linecap="round" stroke-linejoin="round"/>
<path d="M128.649 110.829C128.649 110.829 125.037 93.6913 115.472 81.0564C105.906 68.4215 89.8521 61.3914 89.8521 61.3914C89.8521 61.3914 97.0658 61.9335 101.936 77.2703C106.806 92.607 114.029 106.685 118.182 110.654C122.336 114.624 127.381 119.669 127.381 119.669L128.649 110.829Z" fill="#285E67" stroke="#2B2B2B" stroke-linecap="round" stroke-linejoin="round"/>
<path d="M118.899 129.419C115.361 126.668 112.037 123.651 108.957 120.395C106.086 117.307 103.013 114.412 99.7589 111.73C99.7589 111.73 105.53 110.855 109.141 111.73C112.752 112.604 118.165 116.242 118.165 116.242C116.393 113.579 115.224 110.562 114.737 107.402C114.195 102.715 114.195 100.73 114.195 100.73C118.097 102.435 121.839 104.483 125.378 106.851C130.249 110.278 134.586 119.092 134.586 119.092C134.586 119.092 133.318 116.207 140.173 108.267C147.028 100.328 158.579 95.816 158.579 95.816C158.579 95.816 154.968 107.725 152.082 112.237C150.366 114.927 148.5 117.519 146.495 120.002C146.495 120.002 152.808 114.948 157.495 113.68C162.181 112.412 163.274 112.237 163.274 112.237C163.274 112.237 158.903 119.634 157.154 122.161C154.309 125.847 151.237 129.351 147.955 132.654C145.061 135.592 135.862 141.713 135.862 141.713L127.923 145.866L118.899 129.419Z" fill="#285E67" stroke="#2B2B2B" stroke-linecap="round" stroke-linejoin="round"/>
<path d="M114.755 144.93C114.755 144.93 110.243 141.87 110.059 134.105C109.875 126.341 110.243 120.579 110.243 120.579C110.243 120.579 117.238 122.922 121.61 125.825C124.164 127.503 126.319 129.72 127.923 132.322C127.923 132.322 128.649 127.95 134.044 124.566C139.439 121.182 150.998 118.445 150.998 118.445C150.998 118.445 149.555 127.285 147.938 132.698C146.32 138.11 141.983 142.622 139.456 145.507C136.929 148.393 127.215 155.257 127.215 155.257L114.755 144.93Z" fill="#285E67" stroke="#2B2B2B" stroke-linecap="round" stroke-linejoin="round"/>
<path d="M111.318 155.939C111.318 155.939 107.532 149.626 105.547 145.656C103.562 141.686 103.204 140.786 103.204 140.786C106.424 141.127 109.618 141.67 112.77 142.412C115.355 143.273 117.884 144.295 120.342 145.473C120.342 145.473 120.709 141.686 125.037 137.717C127.572 135.38 130.355 133.328 133.335 131.596C133.335 131.596 138.206 137.192 138.582 140.445C138.958 143.698 139.299 146.566 139.299 146.566L145.979 142.596C146.474 146.277 146.227 150.02 145.253 153.604C143.627 159.017 142.009 161.36 141.467 161.902C140.799 162.412 140.07 162.837 139.299 163.17C139.299 163.17 138.757 165.155 132.444 163.887C126.13 162.619 120.534 160.818 119.992 160.46C119.45 160.101 118.007 159.2 117.282 158.833C116.556 158.466 111.318 155.939 111.318 155.939Z" fill="#285E67" stroke="#2B2B2B" stroke-linecap="round" stroke-linejoin="round"/>
<path d="M101.394 167.131C101.394 167.131 99.9513 164.421 93.2798 162.077C88.5815 160.539 83.7477 159.449 78.8436 158.824C78.8436 158.824 85.1567 155.939 91.2949 156.306C97.4331 156.673 106.273 161.177 107.532 162.619C108.791 164.062 107.716 159.192 100.135 152.511C92.554 145.831 81.187 138.075 77.943 136.466C76.2353 135.594 74.4843 134.809 72.6967 134.114C72.6967 134.114 84.7894 133.939 93.6295 138.985C99.1619 142.191 104.361 145.94 109.15 150.177C107.22 144.127 103.881 138.622 99.4092 134.114C95.2313 129.872 90.6348 126.064 85.6901 122.747C85.6901 122.747 97.2407 127.259 104.997 132.672C112.752 138.084 127.189 153.788 127.189 153.788C127.189 153.788 129.715 141.879 139.098 134.298C144.913 129.669 151.619 126.288 158.798 124.365C158.441 129.463 156.896 134.407 154.286 138.801C152.1 142.552 149.688 146.167 147.063 149.626C147.063 149.626 160.957 141.328 167.279 139.702C173.601 138.075 180.255 136.466 180.255 136.466C180.255 136.466 159.139 148.909 155.353 153.421C151.566 157.933 150.482 159.375 150.482 159.375C150.482 159.375 159.864 155.589 164.376 154.505C168.888 153.421 177.002 153.246 177.002 153.246C177.002 153.246 158.054 160.241 154.452 162.628C150.849 165.015 144.16 168.583 144.16 168.583C144.16 168.583 118.724 167.857 113.312 167.708C107.9 167.56 101.394 167.131 101.394 167.131Z" fill="#285E67" stroke="#2B2B2B" stroke-linecap="round" stroke-linejoin="round"/>
<path d="M113.487 172.902C113.181 172.665 112.889 172.411 112.612 172.141C110.62 170.192 109.023 167.876 107.908 165.321C105.565 160.075 98.5261 151.969 98.5261 151.969C101.753 152.124 104.955 152.608 108.083 153.412C111.133 154.349 114.047 155.684 116.748 157.382C117.617 155.065 118.9 152.926 120.534 151.069L123.061 148.367C123.061 148.367 129.733 155.038 131.543 157.565C132.607 159.037 133.401 160.686 133.886 162.436C133.886 162.436 134.761 159.192 143.627 157.924C152.493 156.656 161.491 154.321 161.491 154.321C161.491 154.321 152.292 165.863 149.249 168.39C146.533 170.403 143.635 172.16 140.593 173.637L113.487 172.902Z" fill="#285E67" stroke="#2B2B2B" stroke-linecap="round" stroke-linejoin="round"/>
<path d="M111.502 176.872C111.502 176.872 103.379 176.33 99.2605 172.718C95.1421 169.107 92.2654 166.947 92.2654 166.947C92.2654 166.947 97.8615 165.688 101.464 167.131C105.066 168.574 111.502 171.442 111.502 171.442C111.502 171.442 110.628 171.083 109.876 166.93C109.489 164.966 109.249 162.975 109.159 160.975C109.159 160.975 115.83 161.334 119.8 164.045C123.77 166.755 125.046 168.556 125.046 168.556C125.046 168.556 122.878 168.014 129.418 166.213C134.579 164.94 139.824 164.034 145.113 163.502C145.113 163.502 145.655 166.746 146.198 170.9C146.74 175.053 145.113 177.396 145.113 177.396L111.502 176.872Z" fill="#285E67" stroke="#2B2B2B" stroke-linecap="round" stroke-linejoin="round"/>
<path d="M101.857 176.155C92.7638 179.652 85.62 183.29 78.896 190.766C68.1585 202.701 64.4336 220.198 63.5855 235.858C62.2302 260.97 64.967 291.294 74.6465 314.728C79.5693 326.619 90.333 338.467 103.842 340.085C110.4 340.881 121.732 340.881 127.101 341.274C132.47 341.668 133.056 341.676 141.004 341.082C182.563 337.96 192.837 287.587 193.248 253.888C193.327 247.968 193.178 241.996 192.89 236.085C191.806 213.92 184.767 190.705 164.455 178.918C161.171 176.946 157.711 175.283 154.12 173.951L155.711 170.174C155.711 170.174 152.537 170.375 151.339 171.363C150.141 172.351 146.372 173.357 146.372 173.357L142.001 167.988L139.421 171.171L133.851 169.973L131.665 174.546L124.312 172.561L121.138 175.543L115.568 173.191C114.852 174.129 113.979 174.937 112.988 175.578C111.598 176.365 105.434 174.782 105.434 174.782L101.857 176.155Z" fill="#FCE2D7" stroke="#2B2B2B" stroke-linecap="round" stroke-linejoin="round"/>
<path d="M110.112 182.52C107.191 187.443 101.989 192.602 96.2263 194.062C90.4641 195.522 89.7646 186.945 95.1071 182.398C100.45 177.851 108.992 177.956 112.744 175.709C116.495 173.462 113.032 177.563 110.112 182.52Z" fill="#FCE2D7" stroke="#2B2B2B" stroke-linecap="round" stroke-linejoin="round"/>
<path d="M109.709 183.159C108.293 181.121 106.282 181.996 105.652 182.179C104.822 182.415 106.745 179.364 106.745 179.364C106.745 179.364 103.012 183.491 99.0682 182.188C97.1707 181.559 96.3313 181.55 95.8154 181.751L95.1072 182.398C89.7647 186.945 90.4555 195.514 96.2264 194.062C101.744 192.672 106.702 187.828 109.709 183.159Z" fill="#FCE2D7" stroke="#2B2B2B" stroke-linecap="round" stroke-linejoin="round"/>
<path d="M124.469 182.459C124.163 187.443 119.039 191.902 114.195 193.634C109.351 195.365 107.2 187.443 110.112 182.52C113.023 177.598 120.036 176.531 122.414 174.336C124.793 172.141 124.766 177.466 124.469 182.459Z" fill="#FCE2D7" stroke="#2B2B2B" stroke-linecap="round" stroke-linejoin="round"/>
<path d="M124.399 183.097C123.653 182.492 122.788 182.051 121.86 181.803C120.932 181.554 119.962 181.504 119.013 181.655C117.964 181.751 117.693 178.437 117.693 178.437C117.693 178.437 116.355 184.059 112.997 182.354C111.38 181.532 110.689 181.532 110.374 181.768C110.314 182.028 110.226 182.28 110.112 182.52C107.191 187.443 109.36 195.356 114.195 193.634C118.829 191.981 123.822 187.863 124.399 183.097Z" fill="#FCE2D7" stroke="#2B2B2B" stroke-linecap="round" stroke-linejoin="round"/>
<path d="M137.34 180.116C139.649 185.24 135.95 190.652 132.225 192.978C128.5 195.304 124.163 187.443 124.469 182.485C124.775 177.528 130.826 176.059 132.234 173.156C133.641 170.253 135.032 174.983 137.34 180.116Z" fill="#FCE2D7" stroke="#2B2B2B" stroke-linecap="round" stroke-linejoin="round"/>
<path d="M137.602 180.78C134.673 179.032 133.073 180.378 132.356 180.614C131.377 180.929 128.859 177.545 128.859 177.545C128.859 177.545 130.529 183.325 126.76 181.917C124.95 181.235 124.373 181.331 124.25 181.628C124.36 181.909 124.431 182.203 124.46 182.503C124.154 187.487 128.5 195.348 132.216 192.996C135.792 190.757 139.412 185.677 137.602 180.78Z" fill="#FCE2D7" stroke="#2B2B2B" stroke-linecap="round" stroke-linejoin="round"/>
<path d="M150.054 181.06C154.985 185.895 154.146 187.434 149.704 189.682C145.262 191.929 139.683 185.31 137.375 180.16C135.067 175.009 139.019 171.827 141.074 169.326C143.128 166.825 145.078 176.181 150.054 181.06Z" fill="#FCE2D7" stroke="#2B2B2B" stroke-linecap="round" stroke-linejoin="round"/>
<path d="M150.622 181.637C147.605 179.163 146.801 178.927 145.682 177.956C144.204 176.688 138.958 173.899 138.958 173.899C138.958 173.899 143.33 180.579 139.089 179.311C137.034 178.708 136.588 178.857 136.649 179.198C136.91 179.48 137.141 179.787 137.34 180.116C139.649 185.24 145.21 191.894 149.669 189.638C153.919 187.487 154.933 186.158 150.622 181.637Z" fill="#FCE2D7" stroke="#2B2B2B" stroke-linecap="round" stroke-linejoin="round"/>
<path d="M164.254 179.136C171.511 183.508 171.87 189.559 166.072 191.308C160.275 193.057 154.95 185.852 150.054 181.06C145.157 176.268 145.428 174.327 149.372 172.762C153.315 171.197 156.996 174.738 164.254 179.136Z" fill="#FCE2D7" stroke="#2B2B2B" stroke-linecap="round" stroke-linejoin="round"/>
<path d="M165.163 179.705C161.736 178.708 159.917 180.378 158.492 180.457C156.655 180.57 148.279 176.907 148.279 176.907C148.279 176.907 154.041 183.832 150.377 181.2C148.628 179.932 148.506 179.827 148.847 180.09C149.188 180.352 149.783 180.789 150.019 181.016C154.95 185.852 160.275 193.057 166.072 191.308C171.616 189.638 171.642 183.981 165.163 179.705Z" fill="#FCE2D7" stroke="#2B2B2B" stroke-linecap="round" stroke-linejoin="round"/>
<path d="M95.6317 195.295C92.8424 201.608 87.0977 208.595 79.578 207.099C73.842 205.954 71.9621 199.842 76.745 193.573C80.7846 188.274 88.7066 182.966 94.1278 183.246C97.6953 183.438 98.5959 188.58 95.6317 195.295Z" fill="#FCE2D7" stroke="#2B2B2B" stroke-linecap="round" stroke-linejoin="round"/>
<path d="M95.1945 196.187C92.8774 195.076 89.511 195.216 88.2956 194.386C86.6867 193.301 89.0476 187.915 89.0476 187.915C89.0476 187.915 86.0135 192.226 81.1781 192.174C78.8435 192.174 77.9166 192.401 77.4532 192.716C77.2171 193.004 76.981 193.284 76.7624 193.59C71.9883 199.903 73.7021 205.735 79.5955 207.117C85.2003 208.411 91.9068 202.754 95.1945 196.187Z" fill="#FCE2D7" stroke="#2B2B2B" stroke-linecap="round" stroke-linejoin="round"/>
<path d="M113.959 194.893C112.665 201.827 107.217 209.478 101.289 208.385C95.3608 207.292 92.4666 202.089 95.6319 195.269C98.7971 188.449 105.399 182.153 109.622 183.421C113.845 184.689 115.244 187.959 113.959 194.893Z" fill="#FCE2D7" stroke="#2B2B2B" stroke-linecap="round" stroke-linejoin="round"/>
<path d="M113.758 195.802C111.432 194.823 108.389 195.942 107.226 195.103C105.687 193.992 106.483 188.387 106.483 188.387C106.483 188.387 103.23 192.147 99.6628 192.847C98.3768 193.064 97.1604 193.583 96.1127 194.36C95.9466 194.666 95.7805 194.98 95.6318 195.295C92.4665 202.089 95.3695 207.292 101.289 208.411C106.964 209.425 112.245 202.518 113.758 195.802Z" fill="#FCE2D7" stroke="#2B2B2B" stroke-linecap="round" stroke-linejoin="round"/>
<path d="M132.33 194.246C132.889 201.241 129.217 209.023 123.114 208.323C117.011 207.624 112.665 201.827 113.959 194.893C115.253 187.959 120.08 182.512 124.408 183.395C128.736 184.278 131.779 187.286 132.33 194.246Z" fill="#FCE2D7" stroke="#2B2B2B" stroke-linecap="round" stroke-linejoin="round"/>
<path d="M132.382 195.164C130.17 194.499 127.46 195.601 126.157 194.849C124.408 193.861 123.464 188.405 123.464 188.405C122.045 190.524 119.844 191.992 117.343 192.488C115.358 192.873 114.51 193.441 114.134 193.931C114.055 194.246 113.976 194.569 113.924 194.893C112.63 201.827 116.967 207.633 123.079 208.324C128.946 209.041 132.636 201.949 132.382 195.164Z" fill="#FCE2D7" stroke="#2B2B2B" stroke-linecap="round" stroke-linejoin="round"/>
<path d="M150.141 190.906C152.668 197.901 149.774 206.645 143.408 206.251C137.043 205.858 132.916 201.215 132.33 194.246C131.744 187.277 133.3 180.396 137.751 181.069C142.202 181.742 147.614 183.928 150.141 190.906Z" fill="#FCE2D7" stroke="#2B2B2B" stroke-linecap="round" stroke-linejoin="round"/>
<path d="M150.43 191.833C147.334 191.133 145.183 193.188 143.671 192.515C141.66 191.64 138.914 186.201 138.914 186.201C138.914 186.201 138.136 190.075 134.691 191.448C133.038 192.104 132.479 192.768 132.277 193.293C132.277 193.616 132.277 193.94 132.33 194.263C132.89 201.258 137.052 205.858 143.408 206.269C149.494 206.645 152.441 198.627 150.43 191.833Z" fill="#FCE2D7" stroke="#2B2B2B" stroke-linecap="round" stroke-linejoin="round"/>
<path d="M166.886 192.471C171.258 198.836 168.783 207.064 163.589 205.805C158.395 204.546 152.668 197.892 150.141 190.941C147.614 183.989 147.588 179.81 150.911 181.961C154.233 184.112 162.54 186.097 166.886 192.471Z" fill="#FCE2D7" stroke="#2B2B2B" stroke-linecap="round" stroke-linejoin="round"/>
<path d="M167.393 193.301C163.135 192.523 161.736 194.237 160.345 193.301C158.509 192.069 154.408 186.604 154.408 186.604C154.408 186.604 156.76 191.693 152.581 189.358C150.57 188.239 149.958 189.419 149.818 189.944C149.923 190.259 150.019 190.582 150.141 190.906C152.668 197.901 158.387 204.537 163.589 205.77C168.556 207.012 170.987 199.501 167.393 193.301Z" fill="#FCE2D7" stroke="#2B2B2B" stroke-linecap="round" stroke-linejoin="round"/>
<path d="M101.63 210.422C100.598 217.505 94.635 225.086 88.6979 225.601C82.2974 226.17 77.8555 215.747 79.6742 209.102C81.423 202.614 89.6597 197.901 95.5531 196.755C101.001 195.697 102.837 202.317 101.63 210.422Z" fill="#FCE2D7" stroke="#2B2B2B" stroke-linecap="round" stroke-linejoin="round"/>
<path d="M101.429 211.471C98.5436 208.717 95.5182 209.854 94.2766 209.539C92.6328 209.137 92.5278 203.418 92.5278 203.418C92.5278 203.418 90.1757 210.413 84.466 208.533C81.7204 207.659 80.5837 207.659 80.094 208.017C79.9629 208.367 79.8317 208.726 79.7268 209.093C77.7857 215.8 81.8078 225.706 88.7505 225.593C94.4777 225.479 99.8727 219.14 101.429 211.471Z" fill="#FCE2D7" stroke="#2B2B2B" stroke-linecap="round" stroke-linejoin="round"/>
<path d="M123.761 210.326C123.826 213.879 122.661 217.346 120.464 220.139C118.267 222.932 115.172 224.88 111.703 225.654C103.746 227.56 100.686 216.412 101.63 210.387C102.915 202.212 109.141 198.014 114.212 196.327C119.284 194.639 123.77 202.203 123.761 210.326Z" fill="#FCE2D7" stroke="#2B2B2B" stroke-linecap="round" stroke-linejoin="round"/>
<path d="M123.708 211.375C120.456 208.822 116.923 209.626 115.498 209.355C113.627 208.997 112.691 203.173 112.691 203.173C112.691 203.173 111.161 211.401 105.871 209.626C103.326 208.752 102.295 208.918 101.858 209.303C101.77 209.67 101.691 210.037 101.63 210.422C100.686 216.447 103.466 227.403 111.703 225.689C115.005 224.965 117.973 223.168 120.145 220.578C122.317 217.989 123.57 214.752 123.708 211.375Z" fill="#FCE2D7" stroke="#2B2B2B" stroke-linecap="round" stroke-linejoin="round"/>
<path d="M144.379 208.236C145.498 216.49 139.718 223.293 134.577 225.129C129.436 226.965 123.682 218.51 123.761 210.326C123.84 202.142 128.955 197.945 132.898 195.662C136.842 193.38 143.26 199.982 144.379 208.236Z" fill="#FCE2D7" stroke="#2B2B2B" stroke-linecap="round" stroke-linejoin="round"/>
<path d="M144.484 209.294C140.768 206.889 137.419 208.551 136.177 208.42C134.533 208.254 132.924 202.561 132.924 202.561C132.924 202.561 132.828 210.763 127.678 209.294C125.212 208.586 124.181 208.796 123.796 209.207C123.796 209.574 123.743 209.941 123.743 210.326C123.665 218.51 129.418 226.939 134.56 225.129C139.491 223.372 145.07 217.085 144.484 209.294Z" fill="#FCE2D7" stroke="#2B2B2B" stroke-linecap="round" stroke-linejoin="round"/>
<path d="M164.717 207.79C167.122 215.528 163.406 219.874 157.556 221.833C149.879 224.412 145.21 214.339 144.379 208.236C143.26 199.982 147.649 192.873 151.234 192.331C156.034 191.605 162.916 201.958 164.717 207.79Z" fill="#FCE2D7" stroke="#2B2B2B" stroke-linecap="round" stroke-linejoin="round"/>
<path d="M164.98 208.796C161.569 206.068 159.147 206.89 157.652 205.893C155.685 204.59 152.721 199.239 152.721 199.239C152.721 199.239 154.015 208.052 148.349 206.951C145.621 206.417 144.598 206.671 144.274 207.108C144.274 207.475 144.335 207.851 144.388 208.236C145.262 214.357 149.888 224.412 157.565 221.833C163.17 219.953 166.755 216.184 164.98 208.796Z" fill="#FCE2D7" stroke="#2B2B2B" stroke-linecap="round" stroke-linejoin="round"/>
<path d="M185.414 203.593C188.352 209.495 185.143 218.851 178.9 221.081C171.03 223.835 166.492 213.902 164.717 207.816C162.435 199.947 162.758 195.575 168.538 193.826C175.638 191.631 182.511 197.752 185.414 203.593Z" fill="#FCE2D7" stroke="#2B2B2B" stroke-linecap="round" stroke-linejoin="round"/>
<path d="M185.799 204.555C182.747 203.138 179.25 205.429 177.649 205.429C175.525 205.386 171.284 200.104 171.284 200.104C171.284 200.104 171.468 207.099 167.594 206.994C165.732 206.933 164.612 206.356 164.429 206.715C164.525 207.064 164.612 207.423 164.717 207.79C166.466 213.911 170.768 223.66 178.9 221.055C185.187 219.026 188.457 211.611 185.799 204.555Z" fill="#FCE2D7" stroke="#2B2B2B" stroke-linecap="round" stroke-linejoin="round"/>
<path d="M88.2695 229.632C87.3951 236.199 82.6122 245.196 75.0575 242.696C68.9368 240.676 64.3113 232.85 65.3168 225.969C66.4798 218.099 72.4344 211.498 78.6688 212.853C85.5152 214.374 89.074 223.512 88.2695 229.632Z" fill="#FCE2D7" stroke="#2B2B2B" stroke-linecap="round" stroke-linejoin="round"/>
<path d="M88.1295 230.734C84.7019 228.898 81.1344 229.422 79.4818 228.382C77.2521 227.009 76.4652 220.005 76.4652 220.005C76.4652 220.005 75.5296 226.039 69.8636 224.806C67.1355 224.211 65.9113 224.491 65.4916 224.876C65.4217 225.243 65.3517 225.601 65.2993 225.969C64.2937 232.85 68.8668 240.571 75.04 242.696C80.8546 244.689 86.9579 238.813 88.1295 230.734Z" fill="#FCE2D7" stroke="#2B2B2B" stroke-linecap="round" stroke-linejoin="round"/>
<path d="M111.581 229.807C111.379 236.802 107.112 246.674 98.9632 245.415C92.0643 244.34 87.4737 236.514 88.2782 229.632C88.9864 223.582 93.1398 212.958 101.079 214.331C107.209 215.397 111.817 221.09 111.581 229.807Z" fill="#FCE2D7" stroke="#2B2B2B" stroke-linecap="round" stroke-linejoin="round"/>
<path d="M111.493 230.9C108.083 229.248 104.498 230.97 102.872 230.026C100.721 228.81 99.5229 221.737 99.5229 221.737C99.5229 221.737 97.4856 227.665 92.5978 227.341C90.2457 227.175 88.8991 227.857 88.4357 228.391C88.3745 228.784 88.3133 229.178 88.2695 229.571C87.5788 236.514 92.0469 244.27 98.9546 245.354C106.693 246.639 110.986 237.668 111.493 230.9Z" fill="#FCE2D7" stroke="#2B2B2B" stroke-linecap="round" stroke-linejoin="round"/>
<path d="M134.708 229.274C134.944 236.173 132.085 246.333 123.787 245.546C116.556 244.864 111.213 237.161 111.546 229.807C111.878 222.812 115.454 213.579 123.7 214.234C129.838 214.724 134.42 220.495 134.708 229.274Z" fill="#FCE2D7" stroke="#2B2B2B" stroke-linecap="round" stroke-linejoin="round"/>
<path d="M134.708 230.419C131.866 229.003 128.491 230.717 126.909 229.877C124.828 228.758 123 221.763 123 221.763C123 221.763 121.986 228.968 115.926 227.525C113.015 226.834 112.061 228.032 111.651 228.592C111.651 228.994 111.589 229.405 111.572 229.807C111.266 237.108 116.442 244.733 123.813 245.546C129.943 246.237 134.603 238.813 134.708 230.419Z" fill="#FCE2D7" stroke="#2B2B2B" stroke-linecap="round" stroke-linejoin="round"/>
<path d="M158.028 226.012C158.728 232.946 155.877 244.121 147.116 243.955C139.036 243.797 134.778 236.689 134.708 229.274C134.656 223.048 136.195 211.611 144.886 212.18C151.357 212.599 157.136 217.164 158.028 226.012Z" fill="#FCE2D7" stroke="#2B2B2B" stroke-linecap="round" stroke-linejoin="round"/>
<path d="M158.098 227.167C154.671 225.916 151.523 228.504 149.748 227.779C147.413 226.817 144.947 219.813 144.947 219.813C144.947 219.813 142.997 225.715 138.145 226.45C135.81 226.799 135.014 227.446 134.708 228.05V229.274C134.787 236.671 139.019 243.771 147.116 243.955C155.449 244.138 158.422 233.864 158.098 227.167Z" fill="#FCE2D7" stroke="#2B2B2B" stroke-linecap="round" stroke-linejoin="round"/>
<path d="M179.617 224.946C180.587 231.066 177.081 242.39 170.208 242.189C163.336 241.987 158.728 232.728 158.028 226.012C157.093 217.164 160.354 210.483 165.758 211.559C171.161 212.634 178.323 216.726 179.617 224.946Z" fill="#FCE2D7" stroke="#2B2B2B" stroke-linecap="round" stroke-linejoin="round"/>
<path d="M179.783 226.03C175.927 224.981 173.076 227.56 171.555 226.756C169.535 225.68 166.833 218.807 166.833 218.807C166.833 218.807 167.096 225.907 161.806 224.211C159.252 223.389 158.308 224.15 157.976 224.771C157.976 225.182 157.976 225.601 158.063 226.012C158.763 232.728 163.038 241.559 170.243 242.189C175.621 242.661 180.552 233.978 179.783 226.03Z" fill="#FCE2D7" stroke="#2B2B2B" stroke-linecap="round" stroke-linejoin="round"/>
<path d="M99.2605 247.514C99.1643 254.596 93.8481 262.894 87.3776 262.64C80.4787 262.369 75.2061 252.095 75.3548 244.742C75.5209 236.549 81.6853 232.457 88.4706 231.626C96.2876 230.62 99.3392 241.611 99.2605 247.514Z" fill="#FCE2D7" stroke="#2B2B2B" stroke-linecap="round" stroke-linejoin="round"/>
<path d="M99.1905 248.633C95.693 245.835 92.3878 246.945 90.8664 246.377C88.864 245.625 87.1939 239.251 87.1939 239.251C87.1939 239.251 86.1272 246.613 79.9628 244.375C76.9986 243.29 75.8619 243.273 75.4422 243.623C75.4422 243.99 75.3635 244.366 75.3547 244.742C75.2061 252.095 80.0939 261.985 87.3776 262.64C93.2185 263.165 98.5697 256.782 99.1905 248.633Z" fill="#FCE2D7" stroke="#2B2B2B" stroke-linecap="round" stroke-linejoin="round"/>
<path d="M124.154 247.662C124.207 255.409 119.468 262.745 111.616 263.681C103.3 264.678 99.1469 254.474 99.2606 247.514C99.3917 239.644 105.294 233.104 111.878 231.775C119.074 230.358 124.111 240.956 124.154 247.662Z" fill="#FCE2D7" stroke="#2B2B2B" stroke-linecap="round" stroke-linejoin="round"/>
<path d="M124.111 248.808C120.613 246.185 116.687 247.19 114.999 246.744C112.779 246.158 110.995 239.679 110.995 239.679C110.995 239.679 109.849 248.126 103.781 246.482C100.861 245.695 99.7589 245.887 99.3392 246.324C99.3392 246.709 99.2692 247.111 99.2605 247.514C99.0944 254.509 103.16 264.372 111.616 263.681C118.48 263.121 124.355 255.488 124.111 248.808Z" fill="#FCE2D7" stroke="#2B2B2B" stroke-linecap="round" stroke-linejoin="round"/>
<path d="M147.562 246.097C147.798 253.967 141.773 262.028 135.443 263.681C128.815 265.43 124.425 253.573 124.154 247.662C123.857 241.166 129.322 233.13 135.058 231.259C141.957 229.012 147.378 240.212 147.562 246.097Z" fill="#FCE2D7" stroke="#2B2B2B" stroke-linecap="round" stroke-linejoin="round"/>
<path d="M147.544 247.269C143.697 244.794 139.482 246.543 138.066 246.211C136.186 245.782 134.664 239.294 134.664 239.294C134.664 239.294 133.79 247.837 128.386 246.403C125.763 245.712 124.609 245.983 124.198 246.403C124.198 246.805 124.154 247.207 124.154 247.618C124.154 253.739 128.771 265.351 135.443 263.637C141.423 262.151 147.544 254.815 147.544 247.269Z" fill="#FCE2D7" stroke="#2B2B2B" stroke-linecap="round" stroke-linejoin="round"/>
<path d="M170.645 244.287C171.048 251.282 167.436 259.344 160.048 260.831C151.986 262.448 147.728 252.576 147.562 246.097C147.369 238.656 153.035 229.012 158.561 227.989C164.28 226.931 170.261 237.607 170.645 244.287Z" fill="#FCE2D7" stroke="#2B2B2B" stroke-linecap="round" stroke-linejoin="round"/>
<path d="M170.663 245.433C167.393 242.984 164.219 244.462 162.654 243.623C160.581 242.512 158.518 236.147 158.518 236.147C158.518 236.147 158.369 245.345 152.178 244.444C149.197 244.016 147.999 244.348 147.579 244.847C147.579 245.266 147.579 245.677 147.579 246.097C147.719 252.602 151.951 263.025 160.065 260.83C166.02 259.213 170.672 253.765 170.663 245.433Z" fill="#FCE2D7" stroke="#2B2B2B" stroke-linecap="round" stroke-linejoin="round"/>
<path d="M192.741 238.053C193.143 245.975 189.244 254.614 182.249 257.753C176.416 260.376 171.17 253.066 170.637 244.287C170.226 237.528 173.26 229.116 180.255 226.799C186.822 224.613 192.322 229.589 192.741 238.053Z" fill="#FCE2D7" stroke="#2B2B2B" stroke-linecap="round" stroke-linejoin="round"/>
<path d="M192.759 239.163C190.223 237.843 186.297 240.597 184.758 240.536C182.721 240.448 180.482 234.476 180.482 234.476C180.482 234.476 179.031 242.285 174.362 242.573C172.097 242.713 170.987 242.573 170.646 243.072C170.646 243.474 170.646 243.876 170.646 244.287C171.091 253.162 176.408 260.367 182.257 257.753C188.885 254.78 192.899 246.753 192.759 239.163Z" fill="#FCE2D7" stroke="#2B2B2B" stroke-linecap="round" stroke-linejoin="round"/>
<path d="M87.0278 265.596C87.2027 274.191 81.5192 280.933 75.8706 278.441C69.3477 275.555 64.7047 266.916 64.3287 259.484C63.9178 251.247 68.5433 245.494 74.9263 247.479C82.6646 249.892 86.8617 257.788 87.0278 265.596Z" fill="#FCE2D7" stroke="#2B2B2B" stroke-linecap="round" stroke-linejoin="round"/>
<path d="M86.9929 266.75C83.3642 264.38 79.9978 264.826 78.2491 263.663C75.9844 262.125 74.1394 254.806 74.1394 254.806C74.1394 254.806 73.9646 261.206 68.3772 259.02C65.6841 257.971 64.6086 258.05 64.2938 258.4C64.2938 258.767 64.2938 259.134 64.2938 259.519C64.6698 266.951 69.3128 275.59 75.8357 278.476C81.2744 280.828 86.6607 274.882 86.9929 266.75Z" fill="#FCE2D7" stroke="#2B2B2B" stroke-linecap="round" stroke-linejoin="round"/>
<path d="M111.257 266.75C111.257 273.745 106.885 283.643 99.0768 282.638C91.8894 281.702 87.0977 272.792 87.0278 265.631C86.9578 259.23 90.9538 249.061 98.832 250.478C106.273 251.789 111.248 259.134 111.257 266.75Z" fill="#FCE2D7" stroke="#2B2B2B" stroke-linecap="round" stroke-linejoin="round"/>
<path d="M111.222 267.843C107.497 265.911 103.799 267.546 102.076 266.663C99.8027 265.491 98.0102 258.242 98.0102 258.242C98.0102 258.242 96.6549 264.879 91.3037 263.935C88.733 263.471 87.4739 263.935 87.0629 264.407C87.0629 264.8 87.0192 265.194 87.0629 265.596C87.1678 272.792 91.8196 281.545 99.112 282.603C106.002 283.6 111.371 274.051 111.222 267.843Z" fill="#FCE2D7" stroke="#2B2B2B" stroke-linecap="round" stroke-linejoin="round"/>
<path d="M135.189 266.75C135.128 273.57 131.866 283.495 124.067 283.014C116.792 282.559 111.301 274.182 111.292 266.741C111.283 259.3 115.83 249.883 123.831 250.696C131.027 251.405 135.189 259.528 135.189 266.75Z" fill="#FCE2D7" stroke="#2B2B2B" stroke-linecap="round" stroke-linejoin="round"/>
<path d="M135.119 267.861C132.207 266.112 128.64 267.721 127.075 266.908C125.011 265.832 123.088 258.627 123.088 258.627C123.088 258.627 122.213 266.068 115.839 264.748C112.787 264.101 111.712 265.001 111.292 265.535C111.292 265.928 111.292 266.33 111.292 266.741C111.336 274.165 116.538 282.271 124.067 283.014C130.013 283.573 134.778 276.15 135.119 267.861Z" fill="#FCE2D7" stroke="#2B2B2B" stroke-linecap="round" stroke-linejoin="round"/>
<path d="M159.751 263.891C159.698 271.175 155.973 281.562 147.465 281.921C138.958 282.279 135.075 274.13 135.189 266.75C135.259 259.51 138.162 248.694 147.273 249.262C154.994 249.665 159.794 256.258 159.751 263.891Z" fill="#FCE2D7" stroke="#2B2B2B" stroke-linecap="round" stroke-linejoin="round"/>
<path d="M159.716 265.001C156.323 263.672 152.817 266.086 151.042 265.43C148.698 264.555 146.609 257.377 146.609 257.377C146.609 257.377 144.055 264.074 138.853 264.311C136.352 264.415 135.521 264.958 135.189 265.508C135.189 265.902 135.189 266.313 135.189 266.706C135.11 274.112 139.063 282.227 147.5 281.903C155.588 281.615 159.366 271.996 159.716 265.001Z" fill="#FCE2D7" stroke="#2B2B2B" stroke-linecap="round" stroke-linejoin="round"/>
<path d="M181.925 260.629C181.82 267.388 177.754 277.496 170.716 278.825C165.224 279.857 159.891 272.504 159.751 263.9C159.637 257.254 162.662 247.444 170.462 247.286C176.224 247.225 182.048 252.76 181.925 260.629Z" fill="#FCE2D7" stroke="#2B2B2B" stroke-linecap="round" stroke-linejoin="round"/>
<path d="M181.881 261.661C178.515 260.787 175.35 263.462 173.872 262.912C171.922 262.195 170.103 255.296 170.103 255.296C170.103 255.296 169.351 262.833 163.869 261.88C161.246 261.425 160.153 262.107 159.777 262.693C159.777 263.095 159.777 263.497 159.777 263.891C159.873 272.539 165.189 279.813 170.742 278.817C177.492 277.601 181.339 268.149 181.881 261.661Z" fill="#FCE2D7" stroke="#2B2B2B" stroke-linecap="round" stroke-linejoin="round"/>
<path d="M99.5229 285.235C99.8202 294.197 94.7837 301.253 89.1876 300.021C81.9127 298.412 77.1648 288.531 76.4215 281.064C75.5471 272.495 80.7935 267.948 87.4301 268.114C95.387 268.333 99.2868 278.397 99.5229 285.235Z" fill="#FCE2D7" stroke="#2B2B2B" stroke-linecap="round" stroke-linejoin="round"/>
<path d="M99.5228 286.38C96.0252 283.626 92.7288 284.771 91.1549 283.993C89.0651 282.961 86.9053 275.922 86.9053 275.922C86.9053 275.922 86.3457 283.521 80.5223 280.88C77.7155 279.612 76.7012 279.542 76.3602 279.883C76.3602 280.268 76.3602 280.662 76.4214 281.064C77.1647 288.531 81.9126 298.412 89.1875 300.021C94.5475 301.201 99.4091 294.783 99.5228 286.38Z" fill="#FCE2D7" stroke="#2B2B2B" stroke-linecap="round" stroke-linejoin="round"/>
<path d="M124.408 285.619C124.478 292.964 120.22 301.358 112.385 301.717C104.271 302.119 99.8638 292.335 99.5228 285.235C99.1468 277.453 104.358 270.003 111.668 269.207C119.503 268.35 124.338 278.441 124.408 285.619Z" fill="#FCE2D7" stroke="#2B2B2B" stroke-linecap="round" stroke-linejoin="round"/>
<path d="M124.373 286.782C120.963 284.159 117.116 285.471 115.376 284.894C113.085 284.124 111.004 277.208 111.004 277.208C111.004 277.208 109.981 285.515 103.886 284.019C100.948 283.302 99.8901 283.538 99.5142 284.019C99.5142 284.422 99.5142 284.832 99.5142 285.252C99.759 292.457 104.026 301.927 112.376 301.734C119.354 301.551 124.697 293.244 124.373 286.782Z" fill="#FCE2D7" stroke="#2B2B2B" stroke-linecap="round" stroke-linejoin="round"/>
<path d="M147.807 284.553C147.605 292.09 141.284 301.052 134.971 301.988C128.657 302.923 124.478 291.801 124.408 285.619C124.285 277.846 128.867 270.755 135.46 269.19C142.053 267.624 147.973 278.117 147.807 284.553Z" fill="#FCE2D7" stroke="#2B2B2B" stroke-linecap="round" stroke-linejoin="round"/>
<path d="M147.728 285.733C144.029 283.381 139.535 285.226 138.11 284.754C136.23 284.133 134.848 277.251 134.848 277.251C134.848 277.251 133.519 285.558 128.43 284.247C125.991 283.608 124.828 283.914 124.443 284.395C124.443 284.797 124.399 285.217 124.443 285.637C124.495 291.845 128.561 302.924 135.005 302.005C140.943 301.14 147.378 292.982 147.728 285.733Z" fill="#FCE2D7" stroke="#2B2B2B" stroke-linecap="round" stroke-linejoin="round"/>
<path d="M170.925 281.317C170.436 288.645 166.475 297.424 158.876 299.269C151.007 301.192 147.649 290.595 147.807 284.553C147.99 276.806 153.586 267.642 160.118 266.304C166.65 264.966 171.354 274.829 170.925 281.317Z" fill="#FCE2D7" stroke="#2B2B2B" stroke-linecap="round" stroke-linejoin="round"/>
<path d="M170.82 282.489C167.847 280.583 164.499 282.542 162.951 281.912C160.949 281.09 159.366 274.462 159.366 274.462C159.366 274.462 158.491 283.329 152.449 282.716C149.52 282.428 148.296 282.795 147.85 283.32C147.85 283.731 147.789 284.15 147.78 284.579C147.605 290.647 150.919 301.192 158.85 299.295C166.099 297.529 170.077 289.484 170.82 282.489Z" fill="#FCE2D7" stroke="#2B2B2B" stroke-linecap="round" stroke-linejoin="round"/>
<path d="M191.753 273.168C190.739 281.116 186.358 289.851 179.643 293.638C174.545 296.514 170.523 290.14 170.899 281.317C171.231 273.999 175.07 265.657 182.266 262.798C188.527 260.306 192.811 264.826 191.753 273.168Z" fill="#FCE2D7" stroke="#2B2B2B" stroke-linecap="round" stroke-linejoin="round"/>
<path d="M191.587 274.27C189.419 273.396 185.764 276.377 184.417 276.395C182.668 276.395 181.374 270.431 181.374 270.431C181.374 270.431 179.477 278.301 174.773 279.018C172.508 279.359 171.406 279.56 171.022 280.102C171.022 280.504 170.943 280.907 170.925 281.317C170.462 290.158 174.528 296.514 179.669 293.638C186.061 290.035 190.276 281.833 191.587 274.27Z" fill="#FCE2D7" stroke="#2B2B2B" stroke-linecap="round" stroke-linejoin="round"/>
<path d="M89.3362 304.725C90.3505 313.206 86.372 318.61 81.764 315.698C75.6433 311.825 71.0965 303.457 69.304 296.226C67.3541 288.356 70.7293 283.232 76.5527 285.733C83.95 288.811 88.4006 296.882 89.3362 304.725Z" fill="#FCE2D7" stroke="#2B2B2B" stroke-linecap="round" stroke-linejoin="round"/>
<path d="M89.4237 305.818C85.9262 302.993 83.0757 303.334 81.5018 302.075C79.4295 300.423 76.8588 293.06 76.8588 293.06C76.8588 293.06 77.3572 299.566 72.4868 296.488C70.126 295.01 69.3041 294.879 69.1117 295.15C69.1816 295.509 69.2429 295.867 69.339 296.226C71.0878 303.483 75.6696 311.825 81.7991 315.698C86.171 318.488 89.9396 313.766 89.4237 305.818Z" fill="#FCE2D7" stroke="#2B2B2B" stroke-linecap="round" stroke-linejoin="round"/>
<path d="M112.166 306.613C112.429 315.357 106.78 322.422 101.56 321.574C94.565 320.438 90.1406 311.519 89.3187 304.725C88.3219 296.217 93.2622 289.248 99.3479 290.149C106.894 291.233 111.948 299.041 112.166 306.613Z" fill="#FCE2D7" stroke="#2B2B2B" stroke-linecap="round" stroke-linejoin="round"/>
<path d="M112.166 307.75C108.503 305.547 105.005 307.129 103.353 306.29C101.175 305.197 99.0856 298.053 99.0856 298.053C99.0856 298.053 98.4036 305.171 93.1485 303.641C90.6216 302.906 89.5723 303.125 89.2488 303.544C89.2488 303.938 89.2488 304.331 89.3362 304.725C90.1406 311.519 94.5301 320.464 101.578 321.574C106.553 322.387 112 316.004 112.166 307.75Z" fill="#FCE2D7" stroke="#2B2B2B" stroke-linecap="round" stroke-linejoin="round"/>
<path d="M134.481 306.972C133.956 315.777 129.235 322.921 123.988 322.405C116.862 321.705 112.411 313.469 112.193 306.605C111.965 299.373 116.565 289.991 124.111 290.577C131.254 291.163 134.901 299.977 134.481 306.972Z" fill="#FCE2D7" stroke="#2B2B2B" stroke-linecap="round" stroke-linejoin="round"/>
<path d="M134.402 308.135C131.823 306.036 128.351 307.584 126.987 306.788C125.177 305.739 123.429 298.613 123.429 298.613C123.429 298.613 122.624 306.071 116.591 304.856C113.679 304.27 112.569 304.856 112.219 305.398C112.219 305.8 112.219 306.203 112.219 306.613C112.437 313.486 116.888 321.714 124.014 322.414C129.068 322.912 133.676 316.59 134.402 308.135Z" fill="#FCE2D7" stroke="#2B2B2B" stroke-linecap="round" stroke-linejoin="round"/>
<path d="M158.054 304.349C156.865 311.152 152.729 321.321 144.825 322.046C138.704 322.606 134.14 315.847 134.481 306.946C134.778 299.374 138.328 289.808 147.273 289.589C154.496 289.484 159.139 298.132 158.054 304.349Z" fill="#FCE2D7" stroke="#2B2B2B" stroke-linecap="round" stroke-linejoin="round"/>
<path d="M157.923 305.564C154.994 304.025 151.409 306.377 149.809 305.783C147.684 304.987 146.206 297.852 146.206 297.852C146.206 297.852 143.085 305.179 138.101 304.9C135.705 304.769 134.944 305.214 134.603 305.774C134.603 306.185 134.533 306.596 134.507 307.007C134.114 315.961 138.695 322.65 144.851 322.108C152.353 321.417 156.778 312.454 157.923 305.564Z" fill="#FCE2D7" stroke="#2B2B2B" stroke-linecap="round" stroke-linejoin="round"/>
<path d="M178.462 298.525C176.941 305.722 172.342 314.999 165.557 317.762C160.835 319.668 157.127 313.442 158.054 304.41C158.797 297.135 162.671 287.797 170.296 286.284C175.857 285.112 180.246 290.096 178.462 298.525Z" fill="#FCE2D7" stroke="#2B2B2B" stroke-linecap="round" stroke-linejoin="round"/>
<path d="M178.209 299.645C175.804 298.831 172.595 301.726 171.345 301.393C169.692 300.974 168.975 294.32 168.975 294.32C168.975 294.32 167.227 302.137 162.181 301.953C159.733 301.857 158.684 302.504 158.229 303.116C158.159 303.536 158.098 303.99 158.054 304.375C157.084 313.442 160.8 319.616 165.557 317.727C172.088 315.147 176.399 306.474 178.209 299.645Z" fill="#FCE2D7" stroke="#2B2B2B" stroke-linecap="round" stroke-linejoin="round"/>
<path d="M102.33 326.051C103.204 333.973 100.677 339.849 96.4974 337.864C90.1843 334.874 85.2003 326.934 83.163 320.088C80.9595 312.664 84.4746 308.257 90.2193 309.464C97.3368 310.959 101.586 319.135 102.33 326.051Z" fill="#FCE2D7" stroke="#2B2B2B" stroke-linecap="round" stroke-linejoin="round"/>
<path d="M102.4 327.083C99.3131 324.687 96.5325 325.579 95.0898 324.661C93.1836 323.445 90.6129 316.791 90.6129 316.791C90.6129 316.791 90.8665 323.472 86.1185 320.499C83.8364 319.065 83.0932 318.864 82.9095 319.117C82.9882 319.458 83.0669 319.799 83.1631 320.149C85.2004 326.995 90.1582 334.935 96.4975 337.925C100.493 339.762 102.837 334.419 102.4 327.083Z" fill="#FCE2D7" stroke="#2B2B2B" stroke-linecap="round" stroke-linejoin="round"/>
<path d="M124.163 326.917C123.892 334.891 120.447 340.662 114.755 340.461C109.062 340.26 103.187 333.982 102.33 326.051C101.473 318.12 106.194 311.431 112.709 311.423C120.394 311.405 124.39 320.018 124.163 326.917Z" fill="#FCE2D7" stroke="#2B2B2B" stroke-linecap="round" stroke-linejoin="round"/>
<path d="M124.093 327.957C121.356 325.684 117.972 327.004 116.39 326.366C114.309 325.492 112.271 319.056 112.271 319.056C112.271 319.056 111.397 326.165 106.002 324.923C103.379 324.329 102.504 324.556 102.251 324.967C102.251 325.325 102.251 325.684 102.33 326.06C103.204 333.991 109.071 340.269 114.755 340.47C120.202 340.653 123.533 335.407 124.093 327.957Z" fill="#FCE2D7" stroke="#2B2B2B" stroke-linecap="round" stroke-linejoin="round"/>
<path d="M144.501 326.646C143.207 334.821 136.011 341.257 132.172 341.222C128.334 341.187 123.944 334.944 124.163 326.917C124.382 318.89 129.514 312.314 134.516 311.851C139.517 311.388 145.795 318.461 144.501 326.646Z" fill="#FCE2D7" stroke="#2B2B2B" stroke-linecap="round" stroke-linejoin="round"/>
<path d="M144.291 327.695C141.371 325.745 136.885 327.459 135.705 326.899C134.149 326.156 133.493 319.633 133.493 319.633C133.493 319.633 131.394 326.794 127.477 325.649C125.588 325.089 124.565 325.378 124.224 325.815C124.224 326.182 124.172 326.55 124.163 326.917C123.944 334.944 128.334 341.187 132.172 341.222C135.845 341.257 142.639 335.346 144.291 327.695Z" fill="#FCE2D7" stroke="#2B2B2B" stroke-linecap="round" stroke-linejoin="round"/>
<path d="M164.612 322.064C162.584 328.604 157.897 336.482 151.496 338.835C147.002 340.478 143.181 334.804 144.501 326.646C145.691 319.222 150.718 311.519 157.801 309.254C163.449 307.453 167.034 314.282 164.612 322.064Z" fill="#FCE2D7" stroke="#2B2B2B" stroke-linecap="round" stroke-linejoin="round"/>
<path d="M164.28 323.087C162.313 322.003 159.034 324.267 157.862 323.961C156.297 323.533 155.991 317.29 155.991 317.29C155.991 317.29 153.962 325.037 148.795 324.792C146.311 324.678 145.175 325.046 144.72 325.526C144.641 325.902 144.562 326.278 144.501 326.663C143.207 334.839 146.661 340.33 151.496 338.852C156.174 337.418 161.674 330.58 164.28 323.087Z" fill="#FCE2D7" stroke="#2B2B2B" stroke-linecap="round" stroke-linejoin="round"/>
<path d="M180.99 312.017C177.451 319.008 172.672 325.298 166.886 330.58C163.388 333.632 162.269 329.977 164.612 322.099C166.781 314.841 171.109 306.815 177.728 303.09C182.8 300.204 184.758 304.681 180.99 312.017Z" fill="#FCE2D7" stroke="#2B2B2B" stroke-linecap="round" stroke-linejoin="round"/>
<path d="M180.474 312.996C179.494 312.795 176.355 315.856 175.516 316.013C174.397 316.214 175.201 310.767 175.201 310.767C175.201 310.767 172.158 318.094 168.267 319.318C166.396 319.913 165.408 320.429 164.971 320.988C164.848 321.356 164.726 321.723 164.612 322.09C162.26 329.96 163.406 333.623 166.886 330.572C172.254 325.832 176.889 319.406 180.474 312.996Z" fill="#FCE2D7" stroke="#2B2B2B" stroke-linecap="round" stroke-linejoin="round"/>
<path d="M90.0094 214.75L107.27 222.008C119.774 227.254 133.781 240.011 138.284 260.524C142.787 281.038 137.034 303.789 129.068 316.59C121.103 329.391 109.307 337.575 90.0444 344.098C70.7816 350.621 55.2787 349.345 41.2798 343.854C27.2808 338.362 18.7643 331.612 15.0481 324.844C11.332 318.077 3.97839 286.529 14.5235 263.025C25.0686 239.522 52.5419 229.51 65.0456 225.252C73.5654 222.243 81.901 218.737 90.0094 214.75Z" fill="#285E67" stroke="#2B2B2B" stroke-linecap="round" stroke-linejoin="round"/>
<path d="M127.529 253.521C124.032 244.777 122.283 237.511 116.775 232.255C111.266 227 99.7677 221.282 95.5181 218.501C91.2686 215.721 90.7615 214.75 88.2607 214.75C85.76 214.75 84.7632 214.252 84.0112 214.75C83.2159 215.367 82.4623 216.036 81.7553 216.753C81.7553 216.753 74.7602 216.254 73.0114 215.747C71.2626 215.24 69.5138 213.246 66.0163 214.497C62.5187 215.747 61.2684 214.497 52.0261 217.994C42.7838 221.492 37.485 222.253 28.5138 228.277C19.5426 234.302 9.5046 249.533 6.25187 255.287C2.99915 261.04 0 282.297 0 290.306C0 298.316 6.25188 315.812 9.0062 319.817C11.7605 323.821 27.5082 335.075 38.0184 339.053C48.5285 343.032 63.0259 343.556 70.7817 341.309C78.5375 339.062 88.5405 337.051 99.5403 328.805C110.54 320.56 121.549 298.788 125.553 289.781C129.558 280.775 131.027 262.273 127.529 253.521Z" fill="#2B2B2B"/>
<path d="M75.5034 218.257C75.5034 218.257 75.1798 218.169 74.5853 218.064C69.1541 217.122 63.5839 217.357 58.2517 218.755C49.2455 221.256 36.4882 226.257 29.4843 231.512C22.4805 236.767 10.4752 253.267 6.9776 262.518C3.48005 271.769 2.9729 290.289 4.47685 297.791C5.9808 305.293 8.22797 316.59 21.5187 325.553C34.8094 334.515 51.0293 341.554 59.2835 340.059C67.5377 338.564 80.0414 333.807 87.0453 331.053C94.0491 328.298 108.809 311.816 113.557 304.288C118.305 296.759 122.301 281.029 122.301 265.526C122.301 250.023 117.553 238.009 112.551 232.011C107.55 226.012 94.294 220.757 88.5405 219.769C82.787 218.781 75.5034 218.257 75.5034 218.257Z" fill="#F4F4F4"/>
<path d="M122.274 265.526C122.281 261.423 121.933 257.327 121.234 253.285C117.789 247.61 109.395 235.106 104.271 234.249C98.2637 233.261 75.7307 231.512 75.7307 231.512L59.4759 233.007C59.4759 233.007 52.3671 237.703 47.9777 240.877C57.1803 242.553 65.7494 246.714 72.7578 252.909C85.2179 264.276 85.2178 286.328 79.8404 296.532C74.4629 306.736 63.979 314.938 50.662 315.768C43.3266 316.207 35.966 315.947 28.6799 314.99C29.1676 316.276 29.9597 317.426 30.9883 318.339C37.7386 325.089 40.4929 333.343 61.2509 335.346C65.0894 335.722 69.3215 335.94 73.6847 336.037C78.6862 334.288 83.5303 332.46 87.0103 331.096C94.0054 328.342 108.774 311.86 113.522 304.331C118.27 296.803 122.274 281.029 122.274 265.526Z" fill="#F4F4F4"/>
<path d="M75.5034 218.257C75.5034 218.257 75.1798 218.169 74.5853 218.064C69.1541 217.122 63.5839 217.357 58.2517 218.755C49.2455 221.256 36.4882 226.257 29.4843 231.512C22.4805 236.767 10.4752 253.267 6.9776 262.518C3.48005 271.769 2.9729 290.289 4.47685 297.791C5.9808 305.293 8.22797 316.59 21.5187 325.553C26.2118 328.741 31.1267 331.59 36.2259 334.078C37.9453 331.615 39.4546 329.012 40.7377 326.296C42.7401 322.046 43.7456 320.796 42.9936 318.794C42.2417 316.791 40.9913 313.04 40.9913 313.04C36.7646 311.63 33.0378 309.024 30.2625 305.538C25.7594 299.784 21.2563 282.279 21.2563 280.277C21.2563 278.275 20.5044 278.275 21.5099 273.527C22.5544 268.997 23.9759 264.563 25.7594 260.271C26.7562 258.024 26.5114 257.517 29.0122 255.025C30.6014 253.347 32.3595 251.838 34.2585 250.521C39.7107 247.283 45.3884 244.439 51.2479 242.014C55.9958 240.265 61.7405 238.761 63.2532 238.263C64.7659 237.764 64.7484 237.012 66.7507 237.012C69.4363 237.203 72.0645 237.881 74.5066 239.015C76.5089 240.011 75.2585 240.265 77.7593 240.265H82.0088C82.6814 240.297 83.3506 240.379 84.0112 240.51C86.5255 237.137 88.8604 233.635 91.0063 230.017C93.0086 226.266 94.0054 223.267 94.0054 222.515C94.0054 222.121 93.4633 221.466 92.9474 220.915C91.4926 220.437 90.009 220.051 88.5055 219.761C82.7258 218.755 75.5034 218.257 75.5034 218.257Z" fill="#F4F4F4"/>
<path d="M77.7594 240.265L76.0106 240.072C76.5698 240.275 77.1695 240.341 77.7594 240.265Z" fill="#999999"/>
<path d="M94.0142 222.506C94.0142 222.113 93.4721 221.457 92.9562 220.906C91.5014 220.428 90.0178 220.042 88.5143 219.752C84.6932 219.087 80.2339 218.65 77.6544 218.423L79.7617 220.005C80.7585 220.757 84.0112 222.008 83.0057 223.258C80.8802 225.74 79.4955 228.77 79.0097 232.002C78.0042 237.248 77.7594 240.256 77.7594 240.256H82.0089C82.6814 240.289 83.3507 240.37 84.0112 240.501C86.5255 237.129 88.8605 233.626 91.0063 230.008C93.0174 226.257 94.0142 223.258 94.0142 222.506Z" fill="#F4F4F4"/>
<path d="M113.522 304.288C118.278 296.785 122.266 281.029 122.266 265.526C122.266 250.023 117.518 238.009 112.516 232.011C108.599 227.315 99.6365 223.083 93.166 220.985C92.6239 222.427 89.3537 231.031 87.7536 234.013C86.0048 237.257 85.2528 241.262 85.7512 242.512C86.2496 243.762 91.5047 246.762 96.0078 248.266C100.511 249.769 100.756 248.764 102.006 251.265C103.256 253.765 103.755 254.273 104.262 257.272C104.769 260.271 105.757 273.273 105.757 276.508C105.757 279.743 104.262 286.765 103.764 288.269C103.265 289.773 102.513 292.265 102.015 293.769C101.516 295.273 100.52 297.773 99.5141 298.018C98.5085 298.263 95.5181 300.773 94.0142 301.769C92.5102 302.766 93.2622 302.521 90.5166 304.777C87.771 307.033 81.7727 312.279 79.5081 313.521C77.2434 314.763 77.0073 316.267 73.7546 316.774C70.5019 317.281 69.0067 318.024 67.2492 318.024H61.7405C59.4933 318.024 57.9894 318.269 55.987 318.269C53.9847 318.269 53.7399 318.767 52.4895 318.269C51.2391 317.771 48.2312 317.019 45.984 315.768C43.7369 314.518 44.9872 314.771 41.9794 313.268C38.9715 311.764 35.9811 321.023 36.2259 322.011C36.4707 322.999 37.7298 322.763 37.7298 323.76C37.7298 324.757 37.7298 326.768 36.733 327.013C35.7362 327.258 33.2355 331.77 33.2355 331.77C33.2355 331.77 33.2355 332.084 33.3229 332.583C43.3784 337.829 53.3551 341.091 59.2485 340.024C67.5027 338.52 80.0065 333.772 87.0103 331.018C94.0142 328.263 108.774 311.79 113.522 304.288Z" fill="#F4F4F4"/>
<path d="M21.9821 260.524L8.92748 258.234C8.48154 259.108 8.05309 259.93 7.72083 260.726L21.9821 260.524Z" fill="#F4F4F4"/>
<path d="M4.8528 271.122C4.75662 271.752 4.66044 272.399 4.573 273.054L20.2333 272.25L4.8528 271.122Z" fill="#F4F4F4"/>
<path d="M4.03093 278.484C3.96972 279.254 3.91725 280.032 3.87354 280.802L17.7588 278.275L4.03093 278.484Z" fill="#F4F4F4"/>
<path d="M3.82985 281.134C3.82985 282.078 3.74242 283.022 3.71619 283.958L18.983 280.277L3.82985 281.134Z" fill="#F4F4F4"/>
<path d="M18.0211 322.973C18.9888 323.778 20.0322 324.565 21.1514 325.334L26.2054 318.794L18.0211 322.973Z" fill="#F4F4F4"/>
<path d="M40.7552 238.507L34.4945 228.277C33.8125 228.662 33.148 229.046 32.5184 229.44L40.7552 238.507Z" fill="#F4F4F4"/>
<path d="M18.7295 290.035L3.86487 292.571C3.93482 293.603 4.02226 294.564 4.12719 295.439L18.7295 290.035Z" fill="#F4F4F4"/>
<path d="M4.98401 300.248C5.16763 301.122 5.37748 301.997 5.61357 302.958L21.5187 296.785L4.98401 300.248Z" fill="#F4F4F4"/>
<path d="M25.4796 257.018L14.0251 249.673C13.3955 250.618 12.7835 251.571 12.1976 252.515L25.4796 257.018Z" fill="#F4F4F4"/>
<path d="M9.6969 313.206C10.1079 313.906 10.5713 314.614 11.026 315.314L26.9835 305.538L9.6969 313.206Z" fill="#F4F4F4"/>
<path d="M24.4828 301.542L6.01575 304.436C6.35676 305.599 6.75024 306.806 7.22241 308.03L24.4828 301.542Z" fill="#F4F4F4"/>
<path d="M41.8481 224.657L48.9919 236.26L43.3259 224.019L41.8481 224.657Z" fill="#F4F4F4"/>
<path d="M49.0881 221.728C48.3886 221.981 47.6891 222.252 46.9808 222.524L51.2478 228.006L49.0881 221.728Z" fill="#F4F4F4"/>
<path d="M56.6604 219.21L62.0029 235.01C62.0029 235.01 59.2049 222.908 58.1206 218.79L56.6604 219.21Z" fill="#F4F4F4"/>
<path d="M26.4852 322.798L21.6848 325.684C22.5592 326.243 23.3636 326.786 24.2205 327.336L26.4852 322.798Z" fill="#F4F4F4"/>
<path d="M11.5857 316.109C12.3225 317.13 13.1135 318.111 13.9553 319.047L24.7365 311.291L11.5857 316.109Z" fill="#F4F4F4"/>
<path d="M23.3549 237.449C22.5417 238.367 21.711 239.338 20.8804 240.361L34.241 247.269L23.3549 237.449Z" fill="#F4F4F4"/>
<path d="M29.8954 231.215C29.7555 231.32 29.6156 231.407 29.4844 231.512C29.1784 231.74 28.8636 231.993 28.5488 232.264L40.493 243.762L29.8954 231.215Z" fill="#F4F4F4"/>
<path d="M115.244 235.945C114.449 234.56 113.54 233.244 112.525 232.011C112.403 231.862 112.263 231.722 112.131 231.582L108.52 240.518L115.244 235.945Z" fill="#F4F4F4"/>
<path d="M100.38 320.21C96.7947 322.781 92.5102 325.797 92.5102 325.797L90.5166 322.798L91.1724 328.561C94.449 326.015 97.527 323.223 100.38 320.21Z" fill="#F4F4F4"/>
<path d="M90.8489 328.832L84.7281 321.329L86.2234 331.367L87.0365 331.053C88.3926 330.469 89.6728 329.724 90.8489 328.832Z" fill="#F4F4F4"/>
<path d="M64.8707 338.738C66.3484 338.336 67.8699 337.864 69.4088 337.401L66.5058 324.285L64.8707 338.738Z" fill="#F4F4F4"/>
<path d="M55.2787 340.199L55.4973 335.066L53.9409 340.067C54.4043 340.111 54.8503 340.199 55.2787 340.199Z" fill="#F4F4F4"/>
<path d="M115.524 240.518L112.77 242.521H118.278L116.022 244.016C116.022 244.016 116.774 243.762 116.774 245.013C117.003 247.031 117.336 249.036 117.771 251.02L119.275 254.273C120.18 254.787 120.993 255.449 121.68 256.231C120.986 250.468 119.442 244.84 117.098 239.53L115.524 240.518Z" fill="#F4F4F4"/>
<path d="M117.028 284.282C115.524 288.531 114.772 293.025 113.023 295.037C111.275 297.048 110.523 303.291 109.771 304.795C109.019 306.299 109.517 306.544 107.768 309.543C107.073 310.833 106.589 312.226 106.334 313.67C108.934 310.704 111.335 307.57 113.522 304.288C118.278 296.785 122.266 281.029 122.266 265.526C122.269 262.668 122.103 259.813 121.767 256.974V263.524L119.267 266.024L120.77 269.024L119.267 270.527C119.267 270.527 118.523 280.032 117.028 284.282Z" fill="#F4F4F4"/>
<path d="M85.76 242.512C86.2584 243.762 91.5134 246.762 96.0165 248.266C99.0856 249.289 100.179 249.14 100.957 249.752C100.834 249.402 100.642 249.149 100.52 248.764C100.266 248.012 98.7709 246.263 97.2669 244.768C95.8336 243.438 94.3304 242.186 92.7638 241.017C92.7638 241.017 87.7623 239.513 86.5119 239.758C85.996 239.863 85.7425 240.553 85.6375 241.332C85.607 241.729 85.6485 242.129 85.76 242.512Z" fill="#F4F4F4"/>
</svg>
