<svg width="139" height="343" viewBox="0 0 139 343" fill="none" xmlns="http://www.w3.org/2000/svg">
<path d="M45.0338 170.567C45.0338 170.567 41.1865 165.137 35.7565 164.447C31.8243 164.11 27.8641 164.336 23.996 165.12C23.996 165.12 26.4793 160.372 28.7439 158.999C30.5023 157.996 32.3151 157.091 34.1739 156.289C32.9422 153.801 31.0674 151.687 28.7439 150.168C24.8966 147.685 18.5573 143.837 18.5573 143.837C18.5573 143.837 26.7066 144.511 30.5539 145.647C33.3848 146.578 36.1149 147.791 38.7032 149.267C38.7032 149.267 32.8186 142.928 28.0619 138.407C23.3052 133.887 13.3547 125.501 13.3547 125.501L5.86121 120.727C10.7862 122.217 15.6284 123.969 20.3673 125.974C26.488 128.693 39.8312 137.516 39.8312 137.516C39.8312 137.516 34.1739 127.985 28.0619 119.853C21.9499 111.721 9.5074 101.29 9.5074 101.29L35.9839 121.401L25.3513 104.429L20.822 99.8994C20.822 99.8994 32.1366 106.02 35.7565 110.759C39.3765 115.499 48.2078 125.694 48.2078 125.694C48.2078 125.694 36.6659 89.9489 31.4633 81.5723C26.2607 73.1956 17.6567 64.6004 17.6567 64.6004C17.6567 64.6004 32.3639 69.5756 36.2112 71.8403C40.0585 74.105 41.4138 75.4603 41.8685 76.1423C42.3232 76.8243 40.5132 66.6377 34.6286 54.1952C28.7439 41.7526 26.0246 35.186 26.0246 35.186C26.0246 35.186 36.4648 42.0324 41.4138 51.0474C46.3629 60.0623 52.9557 74.3848 52.9557 74.3848C52.9557 74.3848 45.9606 36.1391 42.5505 28.9166C39.1404 21.6942 32.3639 11.7261 32.3639 11.7261C32.3639 11.7261 49.1084 24.6234 52.4748 39.7853L55.8674 54.9384C55.8674 54.9384 52.7284 37.7042 50.455 22.997C48.1816 8.2898 47.7444 1.72315 47.7444 1.04113C47.7444 0.359107 53.629 8.28106 57.0216 15.7483C59.5348 21.6388 61.3569 27.8006 62.4516 34.1105C62.9063 36.5937 61.9969 25.9612 63.5795 18.4939C65.1622 11.0266 66.5262 6.72465 66.7536 5.37809C66.9809 4.03154 69.6915 18.4939 70.3735 29.8172C71.0556 41.1406 70.8195 57.8763 70.8195 57.8763C70.8195 57.8763 78.5141 42.2598 80.0967 38.4125C81.6794 34.5652 84.8534 30.543 85.0807 29.5899C84.4606 36.2006 83.4091 42.7638 81.9329 49.2374C79.8956 57.614 78.995 61.234 78.995 61.234L79.2223 67.1186C79.2223 67.1186 93.2125 40.887 98.4589 32.7202C103.705 24.5534 112.449 17.5583 112.449 17.5583C112.449 17.5583 111.575 22.5423 105.454 39.7415C101.262 51.458 95.9566 62.7455 89.6101 73.4492C88.0274 75.9412 85.7628 80.4443 85.0895 81.8258C84.4162 83.2073 85.5354 92.6857 85.5354 92.6857C85.5354 92.6857 97.7769 85.4458 107.264 80.9165C116.751 76.3871 134.186 73.2306 134.186 73.2306C134.186 73.2306 113.376 81.5985 106.809 88.1651C100.243 94.7318 86.4448 105.583 86.4448 105.583L86.6721 115.315C86.6721 115.315 102.962 102.872 114.049 98.1157C125.136 93.359 133.058 92.4584 133.058 92.4584L103.871 112.858C96.4041 118.06 87.8001 124.854 87.8001 124.854C87.8001 124.854 105.909 116.032 120.389 115.577C120.389 115.577 95.0313 131.412 92.5567 135.032C90.0822 138.652 86.2175 142.727 85.7628 143.409C85.3081 144.091 97.532 139.334 104.545 137.524C109.39 136.333 114.301 135.425 119.252 134.805C112.085 136.669 105.286 139.731 99.1409 143.864C88.5083 150.859 84.3725 152.31 83.2708 153.631L82.169 154.951C82.169 154.951 105.48 146.574 111.137 145.219C115.005 144.415 118.98 144.262 122.898 144.764C122.898 144.764 106.897 147.195 99.5081 154.383C92.1196 161.57 82.4051 170.646 71.8775 170.052C61.3499 169.457 55.474 169.457 53.4366 169.23C51.3993 169.002 45.0338 170.567 45.0338 170.567Z" fill="#285E67" stroke="#2B2B2B" stroke-miterlimit="10"/>
<path opacity="0.2" d="M45.0338 170.567C45.0338 170.567 41.1865 165.137 35.7565 164.447C31.8243 164.11 27.8641 164.336 23.996 165.12C23.996 165.12 26.4793 160.372 28.7439 158.999C30.5023 157.996 32.3151 157.091 34.1739 156.289C32.9422 153.801 31.0674 151.687 28.7439 150.168C24.8966 147.685 18.5573 143.837 18.5573 143.837C18.5573 143.837 26.7066 144.511 30.5539 145.647C33.3848 146.578 36.1149 147.791 38.7032 149.267C38.7032 149.267 32.8186 142.928 28.0619 138.407C23.3052 133.887 13.3547 125.501 13.3547 125.501L5.86121 120.727C10.7862 122.217 15.6284 123.969 20.3673 125.974C26.488 128.693 39.8312 137.516 39.8312 137.516C39.8312 137.516 34.1739 127.985 28.0619 119.853C21.9499 111.721 9.5074 101.29 9.5074 101.29L35.9839 121.401L25.3513 104.429L20.822 99.8994C20.822 99.8994 32.1366 106.02 35.7565 110.759C39.3765 115.499 48.2078 125.694 48.2078 125.694C48.2078 125.694 36.6659 89.9489 31.4633 81.5723C26.2607 73.1956 17.6567 64.6004 17.6567 64.6004C17.6567 64.6004 32.3639 69.5756 36.2112 71.8403C40.0585 74.105 41.4138 75.4603 41.8685 76.1423C42.3232 76.8243 40.5132 66.6377 34.6286 54.1952C28.7439 41.7526 26.0246 35.186 26.0246 35.186C26.0246 35.186 36.4648 42.0324 41.4138 51.0474C46.3629 60.0623 52.9557 74.3848 52.9557 74.3848C52.9557 74.3848 45.9606 36.1391 42.5505 28.9166C39.1404 21.6942 32.3639 11.7261 32.3639 11.7261C32.3639 11.7261 49.1084 24.6234 52.4748 39.7853L55.8674 54.9384C55.8674 54.9384 52.7284 37.7042 50.455 22.997C48.1816 8.2898 47.7444 1.72315 47.7444 1.04113C47.7444 0.359107 53.629 8.28106 57.0216 15.7483C59.5348 21.6388 61.3569 27.8006 62.4516 34.1105C62.9063 36.5937 61.9969 25.9612 63.5795 18.4939C65.1622 11.0266 66.5262 6.72465 66.7536 5.37809C66.9809 4.03154 69.6915 18.4939 70.3735 29.8172C71.0556 41.1406 70.8195 57.8763 70.8195 57.8763C70.8195 57.8763 78.5141 42.2598 80.0967 38.4125C81.6794 34.5652 84.8534 30.543 85.0807 29.5899C84.4606 36.2006 83.4091 42.7638 81.9329 49.2374C79.8956 57.614 78.995 61.234 78.995 61.234L79.2223 67.1186C79.2223 67.1186 93.2125 40.887 98.4589 32.7202C103.705 24.5534 112.449 17.5583 112.449 17.5583C112.449 17.5583 111.575 22.5423 105.454 39.7415C101.262 51.458 95.9566 62.7455 89.6101 73.4492C88.0274 75.9412 85.7628 80.4443 85.0895 81.8258C84.4162 83.2073 85.5354 92.6857 85.5354 92.6857C85.5354 92.6857 97.7769 85.4458 107.264 80.9165C116.751 76.3871 134.186 73.2306 134.186 73.2306C134.186 73.2306 113.376 81.5985 106.809 88.1651C100.243 94.7318 86.4448 105.583 86.4448 105.583L86.6721 115.315C86.6721 115.315 102.962 102.872 114.049 98.1157C125.136 93.359 133.058 92.4584 133.058 92.4584L103.871 112.858C96.4041 118.06 87.8001 124.854 87.8001 124.854C87.8001 124.854 105.909 116.032 120.389 115.577C120.389 115.577 95.0313 131.412 92.5567 135.032C90.0822 138.652 86.2175 142.727 85.7628 143.409C85.3081 144.091 97.532 139.334 104.545 137.524C109.39 136.333 114.301 135.425 119.252 134.805C112.085 136.669 105.286 139.731 99.1409 143.864C88.5083 150.859 84.3725 152.31 83.2708 153.631L82.169 154.951C82.169 154.951 105.48 146.574 111.137 145.219C115.005 144.415 118.98 144.262 122.898 144.764C122.898 144.764 106.897 147.195 99.5081 154.383C92.1196 161.57 82.4051 170.646 71.8775 170.052C61.3499 169.457 55.474 169.457 53.4366 169.23C51.3993 169.002 45.0338 170.567 45.0338 170.567Z" fill="#2A2A2A" stroke="#2B2B2B" stroke-miterlimit="10"/>
<path d="M45.0338 170.567C45.0338 170.567 41.1865 165.137 35.7565 164.447C31.8243 164.11 27.8641 164.336 23.996 165.12C23.996 165.12 26.4793 160.372 28.7439 158.999C30.5023 157.996 32.3151 157.091 34.1739 156.289C32.9422 153.801 31.0674 151.687 28.7439 150.168C24.8966 147.685 18.5573 143.837 18.5573 143.837C18.5573 143.837 26.7066 144.511 30.5539 145.647C33.3848 146.578 36.1149 147.791 38.7032 149.267C38.7032 149.267 32.8186 142.928 28.0619 138.407C23.3052 133.887 13.3547 125.501 13.3547 125.501L5.86121 120.727C10.7862 122.217 15.6284 123.969 20.3673 125.974C26.488 128.693 39.8312 137.516 39.8312 137.516C39.8312 137.516 34.1739 127.985 28.0619 119.853C21.9499 111.721 9.5074 101.29 9.5074 101.29L35.9839 121.401L25.3513 104.429L20.822 99.8994C20.822 99.8994 32.1366 106.02 35.7565 110.759C39.3765 115.499 48.2078 125.694 48.2078 125.694C48.2078 125.694 36.6659 89.9489 31.4633 81.5722C26.2607 73.1956 17.6567 64.6004 17.6567 64.6004C17.6567 64.6004 32.3639 69.5756 36.2112 71.8403C40.0585 74.105 41.4138 75.4603 41.8685 76.1423C42.3232 76.8243 40.5132 66.6377 34.6286 54.1952C28.7439 41.7526 26.0246 35.186 26.0246 35.186C26.0246 35.186 36.4648 42.0324 41.4138 51.0474C46.3629 60.0623 52.9557 74.3848 52.9557 74.3848C52.9557 74.3848 45.9606 36.1391 42.5505 28.9166C39.1404 21.6942 32.3639 11.7261 32.3639 11.7261C32.3639 11.7261 49.1084 24.6234 52.4748 39.7853L55.8674 54.9384C55.8674 54.9384 52.7284 37.7042 50.455 22.997C48.1816 8.2898 47.7444 1.72315 47.7444 1.04113C47.7444 0.359107 53.629 8.28106 57.0216 15.7483C59.5348 21.6388 61.3569 27.8006 62.4516 34.1105C62.9063 36.5937 61.9969 25.9612 63.5795 18.4939C65.1622 11.0266 66.5262 6.72465 66.7536 5.37809C66.9809 4.03154 69.6915 18.4939 70.3735 29.8172C71.0556 41.1406 70.8195 57.8763 70.8195 57.8763C70.8195 57.8763 78.5141 42.2598 80.0967 38.4125C81.6794 34.5652 84.8534 30.543 85.0807 29.5899C84.4606 36.2006 83.4091 42.7638 81.9329 49.2374C79.8956 57.614 78.995 61.234 78.995 61.234L79.2223 67.1186C79.2223 67.1186 93.2125 40.887 98.4589 32.7202C103.705 24.5534 112.449 17.5583 112.449 17.5583C112.449 17.5583 111.575 22.5423 105.454 39.7415C101.262 51.458 95.9566 62.7455 89.6101 73.4492C88.0274 75.9412 85.7628 80.4443 85.0895 81.8258C84.4162 83.2073 85.5354 92.6857 85.5354 92.6857C85.5354 92.6857 97.7769 85.4458 107.264 80.9165C116.751 76.3871 134.186 73.2306 134.186 73.2306C134.186 73.2306 113.376 81.5985 106.809 88.1651C100.243 94.7318 86.4448 105.583 86.4448 105.583L86.6721 115.315C86.6721 115.315 102.962 102.872 114.049 98.1157C125.136 93.359 133.058 92.4584 133.058 92.4584L103.871 112.858C96.4041 118.06 87.8001 124.854 87.8001 124.854C87.8001 124.854 105.909 116.032 120.389 115.577C120.389 115.577 95.0313 131.412 92.5568 135.032C90.0822 138.652 86.2174 142.727 85.7628 143.409C85.3081 144.091 97.532 139.334 104.545 137.524C109.39 136.333 114.301 135.425 119.252 134.805C112.085 136.669 105.286 139.731 99.1409 143.864C88.5083 150.859 84.3725 152.31 83.2708 153.631L82.169 154.951C82.169 154.951 105.48 146.574 111.137 145.219C115.005 144.415 118.98 144.262 122.898 144.764C122.898 144.764 106.897 147.195 99.5081 154.383C92.1196 161.57 82.4051 170.646 71.8775 170.052C61.3499 169.457 55.474 169.457 53.4366 169.23C51.3993 169.002 45.0338 170.567 45.0338 170.567Z" stroke="#2B2B2B" stroke-linecap="round" stroke-linejoin="round"/>
<path d="M61.9532 90.1238C61.9532 90.1238 61.0789 56.897 66.6487 41.228C72.2186 25.559 74.9379 20.7935 74.9379 20.7935C74.9379 20.7935 85.5792 50.3828 85.0371 66.9875C84.495 83.5921 76.197 106.685 76.197 106.685L61.9532 90.1238Z" fill="#285E67" stroke="#2B2B2B" stroke-linecap="round" stroke-linejoin="round"/>
<path d="M57.7999 104.516C57.7999 104.516 49.1434 87.3694 50.5862 67.5296C52.0289 47.6897 54.1974 38.8322 53.288 32.7027C52.3787 26.5733 51.6704 20.7935 51.6704 20.7935C51.6704 20.7935 62.8538 45.154 70.4348 63.9184C75.1704 75.8929 77.0852 88.797 76.0308 101.631C75.8472 102.715 70.4348 111.371 70.4348 111.371L66.6487 121.112L57.7999 104.516Z" fill="#285E67" stroke="#2B2B2B" stroke-linecap="round" stroke-linejoin="round"/>
<path d="M56.8992 129.419C56.8992 129.419 44.0894 113.898 33.9815 100.73C27.3792 92.2532 20.1417 84.2908 12.3317 76.9117C12.3317 76.9117 27.4936 82.1581 36.15 90.4385C44.8064 98.719 59.2426 112.639 62.8538 122.196C66.465 131.753 63.0374 137.717 63.0374 137.717L56.8992 129.419Z" fill="#285E67" stroke="#2B2B2B" stroke-linecap="round" stroke-linejoin="round"/>
<path d="M74.2209 123.823C74.2209 123.823 86.4623 103.616 95.1537 82.4991C103.845 61.3826 110.849 52.1841 110.849 52.1841C110.849 52.1841 84.3288 76.3696 79.2749 85.4108C74.2209 94.452 69.8927 98.3955 67.9078 107.961C65.923 117.527 68.4499 129.436 68.6336 130.337C68.8172 131.237 74.2209 123.823 74.2209 123.823Z" fill="#285E67" stroke="#2B2B2B" stroke-linecap="round" stroke-linejoin="round"/>
<path d="M66.6486 110.829C66.6486 110.829 63.0374 93.6913 53.4716 81.0564C43.9058 68.4215 27.8521 61.3914 27.8521 61.3914C27.8521 61.3914 35.0658 61.9335 39.9361 77.2703C44.8064 92.607 52.0289 106.685 56.1822 110.654C60.3356 114.624 65.3808 119.669 65.3808 119.669L66.6486 110.829Z" fill="#285E67" stroke="#2B2B2B" stroke-linecap="round" stroke-linejoin="round"/>
<path d="M56.8993 129.419C53.3608 126.668 50.0373 123.651 46.9575 120.395C44.0859 117.307 41.013 114.412 37.7589 111.73C37.7589 111.73 43.5299 110.855 47.1411 111.73C50.7523 112.604 56.1648 116.242 56.1648 116.242C54.3933 113.579 53.2236 110.562 52.7372 107.402C52.1951 102.715 52.1951 100.73 52.1951 100.73C56.097 102.435 59.8395 104.483 63.3785 106.851C68.2488 110.278 72.5858 119.092 72.5858 119.092C72.5858 119.092 71.3179 116.207 78.1731 108.267C85.0283 100.328 96.579 95.816 96.579 95.816C96.579 95.816 92.9678 107.725 90.0823 112.237C88.3657 114.927 86.5003 117.519 84.4949 120.002C84.4949 120.002 90.808 114.948 95.4947 113.68C100.181 112.412 101.274 112.237 101.274 112.237C101.274 112.237 96.9025 119.634 95.1537 122.161C92.309 125.847 89.2368 129.351 85.9552 132.654C83.061 135.592 73.8624 141.713 73.8624 141.713L65.923 145.866L56.8993 129.419Z" fill="#285E67" stroke="#2B2B2B" stroke-linecap="round" stroke-linejoin="round"/>
<path d="M52.7546 144.93C52.7546 144.93 48.2427 141.87 48.0591 134.105C47.8755 126.341 48.2427 120.579 48.2427 120.579C48.2427 120.579 55.2378 122.922 59.6098 125.825C62.1642 127.503 64.3193 129.72 65.9229 132.322C65.9229 132.322 66.6486 127.95 72.0436 124.566C77.4385 121.182 88.998 118.445 88.998 118.445C88.998 118.445 87.5552 127.285 85.9376 132.698C84.32 138.11 79.983 142.622 77.456 145.507C74.9291 148.393 65.2146 155.257 65.2146 155.257L52.7546 144.93Z" fill="#285E67" stroke="#2B2B2B" stroke-linecap="round" stroke-linejoin="round"/>
<path d="M49.3183 155.939C49.3183 155.939 45.5322 149.626 43.5473 145.656C41.5625 141.686 41.204 140.786 41.204 140.786C44.4235 141.127 47.6184 141.67 50.7698 142.412C53.3552 143.273 55.8842 144.295 58.342 145.473C58.342 145.473 58.7092 141.686 63.0374 137.717C65.5722 135.38 68.3547 133.328 71.3354 131.596C71.3354 131.596 76.2057 137.192 76.5817 140.445C76.9577 143.698 77.2987 146.566 77.2987 146.566L83.979 142.596C84.4736 146.277 84.2269 150.02 83.2533 153.604C81.6269 159.017 80.0093 161.36 79.4672 161.902C78.7986 162.412 78.0704 162.837 77.2987 163.17C77.2987 163.17 76.7566 165.155 70.4435 163.887C64.1304 162.619 58.5343 160.818 57.9922 160.46C57.4501 160.101 56.0074 159.2 55.2816 158.833C54.5559 158.466 49.3183 155.939 49.3183 155.939Z" fill="#285E67" stroke="#2B2B2B" stroke-linecap="round" stroke-linejoin="round"/>
<path d="M39.3941 167.131C39.3941 167.131 37.9513 164.421 31.2798 162.077C26.5815 160.539 21.7477 159.449 16.8436 158.824C16.8436 158.824 23.1567 155.939 29.2949 156.306C35.4331 156.673 44.2731 161.177 45.5323 162.619C46.7914 164.062 45.7159 159.192 38.135 152.511C30.554 145.831 19.187 138.075 15.943 136.466C14.2353 135.594 12.4843 134.809 10.6967 134.114C10.6967 134.114 22.7894 133.939 31.6295 138.985C37.1619 142.191 42.361 145.94 47.1499 150.177C45.2197 144.127 41.8813 138.622 37.4092 134.114C33.2313 129.872 28.6348 126.064 23.6901 122.747C23.6901 122.747 35.2407 127.259 42.9965 132.672C50.7524 138.084 65.1885 153.788 65.1885 153.788C65.1885 153.788 67.7155 141.879 77.0977 134.298C82.9127 129.669 89.6186 126.288 96.7976 124.365C96.4411 129.463 94.896 134.407 92.2858 138.801C90.0996 142.552 87.6877 146.167 85.0633 149.626C85.0633 149.626 98.9574 141.328 105.279 139.702C111.601 138.075 118.255 136.466 118.255 136.466C118.255 136.466 97.1386 148.909 93.3525 153.421C89.5664 157.933 88.4822 159.375 88.4822 159.375C88.4822 159.375 97.8644 155.589 102.376 154.505C106.888 153.421 115.002 153.246 115.002 153.246C115.002 153.246 96.0544 160.241 92.4519 162.628C88.8494 165.015 82.1604 168.583 82.1604 168.583C82.1604 168.583 56.7244 167.857 51.312 167.708C45.8995 167.56 39.3941 167.131 39.3941 167.131Z" fill="#285E67" stroke="#2B2B2B" stroke-linecap="round" stroke-linejoin="round"/>
<path d="M51.4869 172.902C51.181 172.665 50.8891 172.411 50.6125 172.141C48.6203 170.192 47.0231 167.876 45.9083 165.321C43.5649 160.075 36.5261 151.969 36.5261 151.969C39.7525 152.124 42.9547 152.608 46.0832 153.412C49.1334 154.349 52.0469 155.684 54.7484 157.382C55.6166 155.065 56.8996 152.926 58.5345 151.069L61.0614 148.367C61.0614 148.367 67.733 155.038 69.543 157.565C70.6074 159.037 71.4009 160.686 71.8864 162.436C71.8864 162.436 72.7607 159.192 81.627 157.924C90.4933 156.656 99.4908 154.321 99.4908 154.321C99.4908 154.321 90.2922 165.863 87.2494 168.39C84.5326 170.403 81.6346 172.16 78.5929 173.637L51.4869 172.902Z" fill="#285E67" stroke="#2B2B2B" stroke-linecap="round" stroke-linejoin="round"/>
<path d="M49.5019 176.872C49.5019 176.872 41.3789 176.33 37.2605 172.718C33.1421 169.107 30.2654 166.947 30.2654 166.947C30.2654 166.947 35.8615 165.688 39.4639 167.131C43.0664 168.574 49.5019 171.442 49.5019 171.442C49.5019 171.442 48.6275 171.083 47.8756 166.93C47.4891 164.966 47.2494 162.975 47.1585 160.975C47.1585 160.975 53.8301 161.334 57.7998 164.045C61.7696 166.755 63.0462 168.556 63.0462 168.556C63.0462 168.556 60.8777 168.014 67.4181 166.213C72.5792 164.94 77.8241 164.034 83.1134 163.502C83.1134 163.502 83.6555 166.746 84.1976 170.9C84.7397 175.053 83.1134 177.396 83.1134 177.396L49.5019 176.872Z" fill="#285E67" stroke="#2B2B2B" stroke-linecap="round" stroke-linejoin="round"/>
<path d="M39.8574 176.155C30.7638 179.652 23.62 183.29 16.896 190.766C6.1585 202.701 2.43361 220.198 1.58546 235.858C0.230156 260.97 2.96698 291.294 12.6465 314.728C17.5693 326.619 28.333 338.467 41.8423 340.085C48.4002 340.881 59.7322 340.881 65.101 341.274C70.4697 341.668 71.0556 341.676 79.0037 341.082C120.563 337.96 130.837 287.587 131.248 253.888C131.327 247.968 131.178 241.996 130.89 236.085C129.806 213.92 122.767 190.705 102.455 178.918C99.1709 176.946 95.711 175.283 92.1196 173.951L93.711 170.174C93.711 170.174 90.5369 170.375 89.339 171.363C88.1411 172.351 84.3725 173.357 84.3725 173.357L80.0005 167.988L77.4211 171.171L71.8513 169.973L69.6653 174.546L62.3117 172.561L59.1377 175.543L53.5678 173.191C52.8519 174.129 51.9792 174.937 50.9884 175.578C49.5981 176.365 43.4337 174.782 43.4337 174.782L39.8574 176.155Z" fill="#FCE2D7" stroke="#2B2B2B" stroke-linecap="round" stroke-linejoin="round"/>
<path d="M48.1116 182.52C45.1912 187.443 39.9886 192.602 34.2263 194.062C28.4641 195.522 27.7646 186.945 33.1071 182.398C38.4496 177.851 46.9924 177.956 50.7435 175.709C54.4947 173.462 51.0321 177.563 48.1116 182.52Z" fill="#FCE2D7" stroke="#2B2B2B" stroke-linecap="round" stroke-linejoin="round"/>
<path d="M47.7095 183.159C46.293 181.121 44.2819 181.996 43.6523 182.179C42.8216 182.415 44.7453 179.364 44.7453 179.364C44.7453 179.364 41.0117 183.491 37.0682 182.188C35.1707 181.559 34.3313 181.55 33.8154 181.751L33.1072 182.398C27.7647 186.945 28.4555 195.514 34.2264 194.062C39.7438 192.672 44.7016 187.828 47.7095 183.159Z" fill="#FCE2D7" stroke="#2B2B2B" stroke-linecap="round" stroke-linejoin="round"/>
<path d="M62.4691 182.459C62.163 187.443 57.0391 191.902 52.195 193.634C47.3509 195.365 45.1999 187.443 48.1116 182.52C51.0233 177.598 58.0359 176.531 60.4143 174.336C62.7926 172.141 62.7664 177.466 62.4691 182.459Z" fill="#FCE2D7" stroke="#2B2B2B" stroke-linecap="round" stroke-linejoin="round"/>
<path d="M62.3992 183.097C61.6529 182.492 60.7876 182.051 59.8596 181.803C58.9316 181.554 57.9617 181.504 57.013 181.655C55.9637 181.751 55.6926 178.437 55.6926 178.437C55.6926 178.437 54.3548 184.059 50.9972 182.354C49.3795 181.532 48.6888 181.532 48.374 181.768C48.3143 182.028 48.2263 182.28 48.1117 182.52C45.1912 187.443 47.3597 195.356 52.1951 193.634C56.8293 191.981 61.8221 187.863 62.3992 183.097Z" fill="#FCE2D7" stroke="#2B2B2B" stroke-linecap="round" stroke-linejoin="round"/>
<path d="M75.3402 180.116C77.6486 185.24 73.9499 190.652 70.225 192.978C66.5001 195.304 62.1631 187.443 62.4692 182.485C62.7752 177.528 68.826 176.059 70.2337 173.156C71.6415 170.253 73.0318 174.983 75.3402 180.116Z" fill="#FCE2D7" stroke="#2B2B2B" stroke-linecap="round" stroke-linejoin="round"/>
<path d="M75.6024 180.78C72.6732 179.032 71.0731 180.378 70.3561 180.614C69.3767 180.929 66.8585 177.545 66.8585 177.545C66.8585 177.545 68.5286 183.325 64.76 181.917C62.95 181.235 62.3729 181.331 62.2505 181.628C62.3599 181.909 62.4305 182.203 62.4603 182.503C62.1543 187.487 66.5 195.348 70.2162 192.996C73.7924 190.757 77.4124 185.677 75.6024 180.78Z" fill="#FCE2D7" stroke="#2B2B2B" stroke-linecap="round" stroke-linejoin="round"/>
<path d="M88.0536 181.06C92.9852 185.895 92.1458 187.434 87.7039 189.682C83.262 191.929 77.6834 185.31 75.375 180.16C73.0666 175.009 77.0189 171.827 79.0737 169.326C81.1285 166.825 83.0784 176.181 88.0536 181.06Z" fill="#FCE2D7" stroke="#2B2B2B" stroke-linecap="round" stroke-linejoin="round"/>
<path d="M88.6221 181.637C85.6054 179.163 84.801 178.927 83.6818 177.956C82.2041 176.688 76.9577 173.899 76.9577 173.899C76.9577 173.899 81.3297 180.579 77.0889 179.311C75.0341 178.708 74.5882 178.857 74.6494 179.198C74.9099 179.48 75.1414 179.787 75.3401 180.116C77.6485 185.24 83.2096 191.894 87.669 189.638C91.9185 187.487 92.9328 186.158 88.6221 181.637Z" fill="#FCE2D7" stroke="#2B2B2B" stroke-linecap="round" stroke-linejoin="round"/>
<path d="M102.254 179.136C109.511 183.508 109.87 189.559 104.072 191.308C98.2753 193.057 92.9503 185.852 88.0537 181.06C83.1571 176.268 83.4282 174.327 87.3717 172.762C91.3152 171.197 94.9963 174.738 102.254 179.136Z" fill="#FCE2D7" stroke="#2B2B2B" stroke-linecap="round" stroke-linejoin="round"/>
<path d="M103.163 179.705C99.7355 178.708 97.9168 180.378 96.4915 180.457C94.6553 180.57 86.2787 176.907 86.2787 176.907C86.2787 176.907 92.0409 183.832 88.3772 181.2C86.6284 179.932 86.506 179.827 86.847 180.09C87.188 180.352 87.7826 180.789 88.0187 181.016C92.9503 185.852 98.2753 193.057 104.072 191.308C109.616 189.638 109.642 183.981 103.163 179.705Z" fill="#FCE2D7" stroke="#2B2B2B" stroke-linecap="round" stroke-linejoin="round"/>
<path d="M33.6317 195.295C30.8424 201.608 25.0977 208.595 17.578 207.099C11.842 205.954 9.96207 199.842 14.745 193.573C18.7846 188.274 26.7066 182.966 32.1278 183.246C35.6953 183.438 36.5959 188.58 33.6317 195.295Z" fill="#FCE2D7" stroke="#2B2B2B" stroke-linecap="round" stroke-linejoin="round"/>
<path d="M33.1945 196.187C30.8774 195.076 27.511 195.216 26.2956 194.386C24.6867 193.301 27.0476 187.915 27.0476 187.915C27.0476 187.915 24.0135 192.226 19.1781 192.174C16.8435 192.174 15.9166 192.401 15.4532 192.716C15.2171 193.004 14.981 193.284 14.7624 193.59C9.98828 199.903 11.7021 205.735 17.5955 207.117C23.2003 208.411 29.9068 202.754 33.1945 196.187Z" fill="#FCE2D7" stroke="#2B2B2B" stroke-linecap="round" stroke-linejoin="round"/>
<path d="M51.959 194.893C50.6649 201.827 45.2175 209.478 39.2891 208.385C33.3608 207.292 30.4666 202.089 33.6319 195.269C36.7971 188.449 43.3988 182.153 47.6221 183.421C51.8454 184.689 53.2444 187.959 51.959 194.893Z" fill="#FCE2D7" stroke="#2B2B2B" stroke-linecap="round" stroke-linejoin="round"/>
<path d="M51.7579 195.802C49.432 194.823 46.3892 195.942 45.2262 195.103C43.6873 193.992 44.483 188.387 44.483 188.387C44.483 188.387 41.2303 192.147 37.6628 192.847C36.3768 193.064 35.1604 193.583 34.1127 194.36C33.9466 194.666 33.7805 194.98 33.6318 195.295C30.4665 202.089 33.3695 207.292 39.2891 208.411C44.9639 209.425 50.2452 202.518 51.7579 195.802Z" fill="#FCE2D7" stroke="#2B2B2B" stroke-linecap="round" stroke-linejoin="round"/>
<path d="M70.3298 194.246C70.8894 201.241 67.217 209.023 61.1138 208.323C55.0105 207.624 50.6648 201.827 51.9589 194.893C53.253 187.959 58.0796 182.512 62.4079 183.395C66.7361 184.278 69.7789 187.286 70.3298 194.246Z" fill="#FCE2D7" stroke="#2B2B2B" stroke-linecap="round" stroke-linejoin="round"/>
<path d="M70.3823 195.164C68.1701 194.499 65.4595 195.601 64.1567 194.849C62.4079 193.861 61.4636 188.405 61.4636 188.405C60.0451 190.524 57.8436 191.992 55.3428 192.488C53.358 192.873 52.5098 193.441 52.1338 193.931C52.0551 194.246 51.9764 194.569 51.924 194.893C50.6299 201.827 54.9668 207.633 61.0788 208.324C66.946 209.041 70.6359 201.949 70.3823 195.164Z" fill="#FCE2D7" stroke="#2B2B2B" stroke-linecap="round" stroke-linejoin="round"/>
<path d="M88.1411 190.906C90.6681 197.901 87.7739 206.645 81.4083 206.251C75.0428 205.858 70.9157 201.215 70.3298 194.246C69.744 187.277 71.3004 180.396 75.7511 181.069C80.2017 181.742 85.6142 183.928 88.1411 190.906Z" fill="#FCE2D7" stroke="#2B2B2B" stroke-linecap="round" stroke-linejoin="round"/>
<path d="M88.4298 191.833C85.3344 191.133 83.1834 193.188 81.6707 192.515C79.6596 191.64 76.9141 186.201 76.9141 186.201C76.9141 186.201 76.1359 190.075 72.6908 191.448C71.0382 192.104 70.4786 192.768 70.2775 193.293C70.2775 193.616 70.2775 193.94 70.3299 194.263C70.8895 201.258 75.0516 205.858 81.4084 206.269C87.4942 206.645 90.4408 198.627 88.4298 191.833Z" fill="#FCE2D7" stroke="#2B2B2B" stroke-linecap="round" stroke-linejoin="round"/>
<path d="M104.886 192.471C109.258 198.836 106.783 207.064 101.589 205.805C96.3954 204.546 90.6681 197.892 88.1411 190.941C85.6142 183.989 85.5879 179.81 88.9106 181.961C92.2333 184.112 100.54 186.097 104.886 192.471Z" fill="#FCE2D7" stroke="#2B2B2B" stroke-linecap="round" stroke-linejoin="round"/>
<path d="M105.393 193.301C101.135 192.523 99.7355 194.237 98.3453 193.301C96.509 192.069 92.4082 186.604 92.4082 186.604C92.4082 186.604 94.7603 191.693 90.5807 189.358C88.5696 188.239 87.9575 189.419 87.8176 189.944C87.9226 190.259 88.0187 190.582 88.1412 190.906C90.6681 197.901 96.3866 204.537 101.589 205.77C106.556 207.012 108.987 199.501 105.393 193.301Z" fill="#FCE2D7" stroke="#2B2B2B" stroke-linecap="round" stroke-linejoin="round"/>
<path d="M39.6301 210.422C38.5983 217.505 32.635 225.086 26.6979 225.601C20.2974 226.17 15.8555 215.747 17.6742 209.102C19.423 202.614 27.6597 197.901 33.5531 196.755C39.0005 195.697 40.8367 202.317 39.6301 210.422Z" fill="#FCE2D7" stroke="#2B2B2B" stroke-linecap="round" stroke-linejoin="round"/>
<path d="M39.4291 211.471C36.5436 208.717 33.5182 209.854 32.2766 209.539C30.6328 209.137 30.5278 203.418 30.5278 203.418C30.5278 203.418 28.1757 210.413 22.466 208.533C19.7204 207.659 18.5837 207.659 18.094 208.017C17.9629 208.367 17.8317 208.726 17.7268 209.093C15.7857 215.8 19.8078 225.706 26.7505 225.593C32.4777 225.479 37.8727 219.14 39.4291 211.471Z" fill="#FCE2D7" stroke="#2B2B2B" stroke-linecap="round" stroke-linejoin="round"/>
<path d="M61.7608 210.326C61.8258 213.879 60.6612 217.346 58.4639 220.139C56.2666 222.932 53.1717 224.88 49.703 225.654C41.7461 227.56 38.6857 216.412 39.6301 210.387C40.9154 202.212 47.141 198.014 52.2125 196.327C57.2839 194.639 61.7696 202.203 61.7608 210.326Z" fill="#FCE2D7" stroke="#2B2B2B" stroke-linecap="round" stroke-linejoin="round"/>
<path d="M61.7085 211.375C58.4557 208.822 54.9232 209.626 53.4979 209.355C51.6268 208.997 50.6912 203.173 50.6912 203.173C50.6912 203.173 49.161 211.401 43.8709 209.626C41.3265 208.752 40.2947 208.918 39.8575 209.303C39.7701 209.67 39.6914 210.037 39.6302 210.422C38.6858 216.447 41.4664 227.403 49.7031 225.689C53.0047 224.965 55.9734 223.168 58.1455 220.578C60.3175 217.989 61.5704 214.752 61.7085 211.375Z" fill="#FCE2D7" stroke="#2B2B2B" stroke-linecap="round" stroke-linejoin="round"/>
<path d="M82.3789 208.236C83.4981 216.49 77.7184 223.293 72.577 225.129C67.4356 226.965 61.6821 218.51 61.7608 210.326C61.8395 202.142 66.9547 197.945 70.8982 195.662C74.8417 193.38 81.2597 199.982 82.3789 208.236Z" fill="#FCE2D7" stroke="#2B2B2B" stroke-linecap="round" stroke-linejoin="round"/>
<path d="M82.4838 209.294C78.7677 206.889 75.4188 208.551 74.1771 208.42C72.5333 208.254 70.9244 202.561 70.9244 202.561C70.9244 202.561 70.8282 210.763 65.6781 209.294C63.2123 208.586 62.1805 208.796 61.7958 209.207C61.7958 209.574 61.7434 209.941 61.7434 210.326C61.6647 218.51 67.4181 226.939 72.5595 225.129C77.4911 223.372 83.0697 217.085 82.4838 209.294Z" fill="#FCE2D7" stroke="#2B2B2B" stroke-linecap="round" stroke-linejoin="round"/>
<path d="M102.717 207.79C105.122 215.528 101.406 219.874 95.5559 221.833C87.8788 224.412 83.2095 214.339 82.3789 208.236C81.2597 199.982 85.6491 192.873 89.2341 192.331C94.0345 191.605 100.916 201.958 102.717 207.79Z" fill="#FCE2D7" stroke="#2B2B2B" stroke-linecap="round" stroke-linejoin="round"/>
<path d="M102.98 208.796C99.5694 206.068 97.1474 206.89 95.6522 205.893C93.6848 204.59 90.7206 199.239 90.7206 199.239C90.7206 199.239 92.0147 208.052 86.3487 206.951C83.6206 206.417 82.5976 206.671 82.274 207.108C82.274 207.475 82.3353 207.851 82.3877 208.236C83.2621 214.357 87.8876 224.412 95.5647 221.833C101.17 219.953 104.755 216.184 102.98 208.796Z" fill="#FCE2D7" stroke="#2B2B2B" stroke-linecap="round" stroke-linejoin="round"/>
<path d="M123.414 203.593C126.352 209.495 123.143 218.851 116.9 221.081C109.03 223.835 104.492 213.902 102.717 207.816C100.435 199.947 100.758 195.575 106.538 193.826C113.638 191.631 120.511 197.752 123.414 203.593Z" fill="#FCE2D7" stroke="#2B2B2B" stroke-linecap="round" stroke-linejoin="round"/>
<path d="M123.799 204.555C120.747 203.138 117.25 205.429 115.649 205.429C113.525 205.386 109.284 200.104 109.284 200.104C109.284 200.104 109.468 207.099 105.594 206.994C103.732 206.933 102.612 206.356 102.429 206.715C102.525 207.064 102.612 207.423 102.717 207.79C104.466 213.911 108.768 223.66 116.9 221.055C123.187 219.026 126.457 211.611 123.799 204.555Z" fill="#FCE2D7" stroke="#2B2B2B" stroke-linecap="round" stroke-linejoin="round"/>
<path d="M26.2695 229.632C25.3951 236.199 20.6122 245.196 13.0575 242.696C6.93681 240.676 2.3113 232.85 3.31685 225.969C4.47978 218.099 10.4344 211.498 16.6688 212.853C23.5152 214.374 27.074 223.512 26.2695 229.632Z" fill="#FCE2D7" stroke="#2B2B2B" stroke-linecap="round" stroke-linejoin="round"/>
<path d="M26.1295 230.734C22.7019 228.898 19.1344 229.422 17.4818 228.382C15.2521 227.009 14.4652 220.005 14.4652 220.005C14.4652 220.005 13.5296 226.039 7.86357 224.806C5.13548 224.211 3.91134 224.491 3.49163 224.876C3.42168 225.243 3.35174 225.601 3.29928 225.969C2.29373 232.85 6.86678 240.571 13.04 242.696C18.8546 244.689 24.9579 238.813 26.1295 230.734Z" fill="#FCE2D7" stroke="#2B2B2B" stroke-linecap="round" stroke-linejoin="round"/>
<path d="M49.5806 229.807C49.3795 236.802 45.1125 246.674 36.9632 245.415C30.0643 244.34 25.4737 236.514 26.2782 229.632C26.9864 223.582 31.1398 212.958 39.0792 214.331C45.2087 215.397 49.8167 221.09 49.5806 229.807Z" fill="#FCE2D7" stroke="#2B2B2B" stroke-linecap="round" stroke-linejoin="round"/>
<path d="M49.4933 230.9C46.0832 229.248 42.4982 230.97 40.8718 230.026C38.7208 228.81 37.5229 221.737 37.5229 221.737C37.5229 221.737 35.4856 227.665 30.5978 227.341C28.2457 227.175 26.8991 227.857 26.4357 228.391C26.3745 228.784 26.3133 229.178 26.2695 229.571C25.5788 236.514 30.0469 244.27 36.9546 245.354C44.6929 246.639 48.9861 237.668 49.4933 230.9Z" fill="#FCE2D7" stroke="#2B2B2B" stroke-linecap="round" stroke-linejoin="round"/>
<path d="M72.7082 229.274C72.9443 236.173 70.0851 246.333 61.7871 245.546C54.5559 244.864 49.2134 237.161 49.5457 229.807C49.878 222.812 53.4542 213.579 61.6997 214.234C67.8379 214.724 72.4197 220.495 72.7082 229.274Z" fill="#FCE2D7" stroke="#2B2B2B" stroke-linecap="round" stroke-linejoin="round"/>
<path d="M72.7081 230.419C69.8664 229.003 66.4912 230.717 64.9086 229.877C62.8276 228.758 61.0001 221.763 61.0001 221.763C61.0001 221.763 59.9858 228.968 53.9263 227.525C51.0146 226.834 50.0615 228.032 49.6505 228.592C49.6505 228.994 49.5893 229.405 49.5718 229.807C49.2658 237.108 54.4422 244.733 61.8133 245.546C67.9427 246.237 72.6032 238.813 72.7081 230.419Z" fill="#FCE2D7" stroke="#2B2B2B" stroke-linecap="round" stroke-linejoin="round"/>
<path d="M96.0281 226.012C96.7276 232.946 93.8771 244.121 85.1157 243.955C77.0364 243.797 72.7781 236.689 72.7082 229.274C72.6557 223.048 74.1946 211.611 82.8861 212.18C89.3565 212.599 95.1362 217.164 96.0281 226.012Z" fill="#FCE2D7" stroke="#2B2B2B" stroke-linecap="round" stroke-linejoin="round"/>
<path d="M96.0981 227.167C92.6705 225.916 89.5227 228.504 87.7477 227.779C85.4131 226.817 82.9473 219.813 82.9473 219.813C82.9473 219.813 80.9975 225.715 76.1446 226.45C73.81 226.799 73.0143 227.446 72.7083 228.05V229.274C72.7869 236.671 77.019 243.771 85.1158 243.955C93.4487 244.138 96.4216 233.864 96.0981 227.167Z" fill="#FCE2D7" stroke="#2B2B2B" stroke-linecap="round" stroke-linejoin="round"/>
<path d="M117.617 224.946C118.587 231.066 115.081 242.39 108.208 242.189C101.336 241.987 96.7277 232.728 96.0282 226.012C95.0926 217.164 98.354 210.483 103.758 211.559C109.161 212.634 116.323 216.726 117.617 224.946Z" fill="#FCE2D7" stroke="#2B2B2B" stroke-linecap="round" stroke-linejoin="round"/>
<path d="M117.783 226.03C113.927 224.981 111.076 227.56 109.555 226.756C107.535 225.68 104.833 218.807 104.833 218.807C104.833 218.807 105.096 225.907 99.8055 224.211C97.2523 223.389 96.308 224.15 95.9757 224.771C95.9757 225.182 95.9757 225.601 96.0632 226.012C96.7627 232.728 101.038 241.559 108.243 242.189C113.621 242.661 118.552 233.978 117.783 226.03Z" fill="#FCE2D7" stroke="#2B2B2B" stroke-linecap="round" stroke-linejoin="round"/>
<path d="M37.2605 247.514C37.1643 254.596 31.8481 262.894 25.3776 262.64C18.4787 262.369 13.2061 252.095 13.3548 244.742C13.5209 236.549 19.6853 232.457 26.4706 231.626C34.2876 230.62 37.3392 241.611 37.2605 247.514Z" fill="#FCE2D7" stroke="#2B2B2B" stroke-linecap="round" stroke-linejoin="round"/>
<path d="M37.1905 248.633C33.693 245.835 30.3878 246.945 28.8664 246.377C26.864 245.625 25.1939 239.251 25.1939 239.251C25.1939 239.251 24.1272 246.613 17.9628 244.375C14.9986 243.29 13.8619 243.273 13.4422 243.623C13.4422 243.99 13.3635 244.366 13.3547 244.742C13.2061 252.095 18.0939 261.985 25.3776 262.64C31.2185 263.165 36.5697 256.782 37.1905 248.633Z" fill="#FCE2D7" stroke="#2B2B2B" stroke-linecap="round" stroke-linejoin="round"/>
<path d="M62.1544 247.662C62.2069 255.409 57.4677 262.745 49.6157 263.681C41.3002 264.678 37.1469 254.474 37.2606 247.514C37.3917 239.644 43.2938 233.104 49.878 231.775C57.0742 230.358 62.1107 240.956 62.1544 247.662Z" fill="#FCE2D7" stroke="#2B2B2B" stroke-linecap="round" stroke-linejoin="round"/>
<path d="M62.1106 248.808C58.6131 246.185 54.6871 247.19 52.9995 246.744C50.7785 246.158 48.9948 239.679 48.9948 239.679C48.9948 239.679 47.8493 248.126 41.7811 246.482C38.8606 245.695 37.7589 245.887 37.3392 246.324C37.3392 246.709 37.2692 247.111 37.2605 247.514C37.0944 254.509 41.1603 264.372 49.6156 263.681C56.4795 263.121 62.3554 255.488 62.1106 248.808Z" fill="#FCE2D7" stroke="#2B2B2B" stroke-linecap="round" stroke-linejoin="round"/>
<path d="M85.5618 246.097C85.7979 253.967 79.7733 262.028 73.4428 263.681C66.8149 265.43 62.4255 253.573 62.1544 247.662C61.8571 241.166 67.3221 233.13 73.058 231.259C79.957 229.012 85.3782 240.212 85.5618 246.097Z" fill="#FCE2D7" stroke="#2B2B2B" stroke-linecap="round" stroke-linejoin="round"/>
<path d="M85.5442 247.269C81.6969 244.794 77.4823 246.543 76.0658 246.211C74.1859 245.782 72.6644 239.294 72.6644 239.294C72.6644 239.294 71.79 247.837 66.3863 246.403C63.7632 245.712 62.609 245.983 62.198 246.403C62.198 246.805 62.1543 247.207 62.1543 247.618C62.1543 253.739 66.7711 265.351 73.4426 263.637C79.4234 262.151 85.5442 254.815 85.5442 247.269Z" fill="#FCE2D7" stroke="#2B2B2B" stroke-linecap="round" stroke-linejoin="round"/>
<path d="M108.645 244.287C109.048 251.282 105.436 259.344 98.0479 260.831C89.9861 262.448 85.7278 252.576 85.5616 246.097C85.3693 238.656 91.0353 229.012 96.5615 227.989C102.28 226.931 108.261 237.607 108.645 244.287Z" fill="#FCE2D7" stroke="#2B2B2B" stroke-linecap="round" stroke-linejoin="round"/>
<path d="M108.663 245.433C105.393 242.984 102.219 244.462 100.654 243.623C98.5814 242.512 96.5178 236.147 96.5178 236.147C96.5178 236.147 96.3692 245.345 90.1785 244.444C87.1968 244.016 85.9989 244.348 85.5792 244.847C85.5792 245.266 85.5792 245.677 85.5792 246.097C85.7191 252.602 89.9512 263.025 98.0655 260.83C104.02 259.213 108.672 253.765 108.663 245.433Z" fill="#FCE2D7" stroke="#2B2B2B" stroke-linecap="round" stroke-linejoin="round"/>
<path d="M130.741 238.053C131.143 245.975 127.244 254.614 120.249 257.753C114.416 260.376 109.17 253.066 108.637 244.287C108.226 237.528 111.26 229.116 118.255 226.799C124.822 224.613 130.322 229.589 130.741 238.053Z" fill="#FCE2D7" stroke="#2B2B2B" stroke-linecap="round" stroke-linejoin="round"/>
<path d="M130.759 239.163C128.223 237.843 124.297 240.597 122.758 240.536C120.721 240.448 118.482 234.476 118.482 234.476C118.482 234.476 117.031 242.285 112.362 242.573C110.097 242.713 108.987 242.573 108.646 243.072C108.646 243.474 108.646 243.876 108.646 244.287C109.091 253.162 114.408 260.367 120.257 257.753C126.885 254.78 130.899 246.753 130.759 239.163Z" fill="#FCE2D7" stroke="#2B2B2B" stroke-linecap="round" stroke-linejoin="round"/>
<path d="M25.0278 265.596C25.2027 274.191 19.5192 280.933 13.8706 278.441C7.34771 275.555 2.70471 266.916 2.32872 259.484C1.91776 251.247 6.54327 245.494 12.9263 247.479C20.6646 249.892 24.8617 257.788 25.0278 265.596Z" fill="#FCE2D7" stroke="#2B2B2B" stroke-linecap="round" stroke-linejoin="round"/>
<path d="M24.9929 266.75C21.3642 264.38 17.9978 264.826 16.2491 263.663C13.9844 262.125 12.1394 254.806 12.1394 254.806C12.1394 254.806 11.9646 261.206 6.37721 259.02C3.6841 257.971 2.6086 258.05 2.29382 258.4C2.29382 258.767 2.29382 259.134 2.29382 259.519C2.66981 266.951 7.31281 275.59 13.8357 278.476C19.2744 280.828 24.6607 274.882 24.9929 266.75Z" fill="#FCE2D7" stroke="#2B2B2B" stroke-linecap="round" stroke-linejoin="round"/>
<path d="M49.2571 266.75C49.2571 273.745 44.8851 283.643 37.0768 282.638C29.8894 281.702 25.0977 272.792 25.0278 265.631C24.9578 259.23 28.9538 249.061 36.832 250.478C44.273 251.789 49.2483 259.134 49.2571 266.75Z" fill="#FCE2D7" stroke="#2B2B2B" stroke-linecap="round" stroke-linejoin="round"/>
<path d="M49.2222 267.843C45.4973 265.911 41.7987 267.546 40.0761 266.663C37.8027 265.491 36.0102 258.242 36.0102 258.242C36.0102 258.242 34.6549 264.879 29.3037 263.935C26.733 263.471 25.4739 263.935 25.0629 264.407C25.0629 264.8 25.0192 265.194 25.0629 265.596C25.1678 272.792 29.8196 281.545 37.112 282.603C44.0021 283.6 49.3709 274.051 49.2222 267.843Z" fill="#FCE2D7" stroke="#2B2B2B" stroke-linecap="round" stroke-linejoin="round"/>
<path d="M73.1891 266.75C73.1279 273.57 69.8665 283.495 62.0669 283.014C54.792 282.559 49.3009 274.182 49.2921 266.741C49.2834 259.3 53.8302 249.883 61.8308 250.696C69.0271 251.405 73.1891 259.528 73.1891 266.75Z" fill="#FCE2D7" stroke="#2B2B2B" stroke-linecap="round" stroke-linejoin="round"/>
<path d="M73.1192 267.861C70.2075 266.112 66.64 267.721 65.0748 266.908C63.0113 265.832 61.0876 258.627 61.0876 258.627C61.0876 258.627 60.2132 266.068 53.8389 264.748C50.7873 264.101 49.7118 265.001 49.2921 265.535C49.2921 265.928 49.2921 266.33 49.2921 266.741C49.3358 274.165 54.5384 282.271 62.0669 283.014C68.0128 283.573 72.7782 276.15 73.1192 267.861Z" fill="#FCE2D7" stroke="#2B2B2B" stroke-linecap="round" stroke-linejoin="round"/>
<path d="M97.7506 263.891C97.6982 271.175 93.9733 281.562 85.4655 281.921C76.9577 282.279 73.0754 274.13 73.1891 266.75C73.259 259.51 76.162 248.694 85.2731 249.262C92.994 249.665 97.7943 256.258 97.7506 263.891Z" fill="#FCE2D7" stroke="#2B2B2B" stroke-linecap="round" stroke-linejoin="round"/>
<path d="M97.7156 265.001C94.323 263.672 90.8167 266.086 89.0417 265.43C86.6983 264.555 84.6085 257.377 84.6085 257.377C84.6085 257.377 82.0553 264.074 76.8527 264.311C74.352 264.415 73.5213 264.958 73.189 265.508C73.189 265.902 73.189 266.313 73.189 266.706C73.1103 274.112 77.0626 282.227 85.5004 281.903C93.5885 281.615 97.3658 271.996 97.7156 265.001Z" fill="#FCE2D7" stroke="#2B2B2B" stroke-linecap="round" stroke-linejoin="round"/>
<path d="M119.925 260.629C119.82 267.388 115.754 277.496 108.716 278.825C103.224 279.857 97.8907 272.504 97.7508 263.9C97.6371 257.254 100.662 247.444 108.462 247.286C114.224 247.225 120.048 252.76 119.925 260.629Z" fill="#FCE2D7" stroke="#2B2B2B" stroke-linecap="round" stroke-linejoin="round"/>
<path d="M119.881 261.661C116.515 260.787 113.35 263.462 111.872 262.912C109.922 262.195 108.103 255.296 108.103 255.296C108.103 255.296 107.351 262.833 101.869 261.88C99.2458 261.425 98.1528 262.107 97.7769 262.693C97.7769 263.095 97.7769 263.497 97.7769 263.891C97.873 272.539 103.189 279.813 108.742 278.817C115.492 277.601 119.339 268.149 119.881 261.661Z" fill="#FCE2D7" stroke="#2B2B2B" stroke-linecap="round" stroke-linejoin="round"/>
<path d="M37.5229 285.235C37.8202 294.197 32.7837 301.253 27.1876 300.021C19.9127 298.412 15.1648 288.531 14.4215 281.064C13.5471 272.495 18.7935 267.948 25.4301 268.114C33.387 268.333 37.2868 278.397 37.5229 285.235Z" fill="#FCE2D7" stroke="#2B2B2B" stroke-linecap="round" stroke-linejoin="round"/>
<path d="M37.5228 286.38C34.0252 283.626 30.7288 284.771 29.1549 283.993C27.0651 282.961 24.9053 275.922 24.9053 275.922C24.9053 275.922 24.3457 283.521 18.5223 280.88C15.7155 279.612 14.7012 279.542 14.3602 279.883C14.3602 280.268 14.3602 280.662 14.4214 281.064C15.1647 288.531 19.9126 298.412 27.1875 300.021C32.5475 301.201 37.4091 294.783 37.5228 286.38Z" fill="#FCE2D7" stroke="#2B2B2B" stroke-linecap="round" stroke-linejoin="round"/>
<path d="M62.4078 285.619C62.4778 292.964 58.2195 301.358 50.385 301.717C42.2707 302.119 37.8638 292.335 37.5228 285.235C37.1468 277.453 42.3581 270.003 49.668 269.207C57.5025 268.35 62.3379 278.441 62.4078 285.619Z" fill="#FCE2D7" stroke="#2B2B2B" stroke-linecap="round" stroke-linejoin="round"/>
<path d="M62.373 286.782C58.9629 284.159 55.1156 285.471 53.3756 284.894C51.0847 284.124 49.0036 277.208 49.0036 277.208C49.0036 277.208 47.9806 285.515 41.8861 284.019C38.9482 283.302 37.8901 283.538 37.5142 284.019C37.5142 284.422 37.5142 284.832 37.5142 285.252C37.759 292.457 42.026 301.927 50.3764 301.734C57.354 301.551 62.6965 293.244 62.373 286.782Z" fill="#FCE2D7" stroke="#2B2B2B" stroke-linecap="round" stroke-linejoin="round"/>
<path d="M85.8065 284.553C85.6054 292.09 79.2836 301.052 72.9705 301.988C66.6574 302.923 62.4779 291.801 62.4079 285.619C62.2855 277.846 66.8673 270.755 73.4602 269.19C80.0531 267.624 85.9727 278.117 85.8065 284.553Z" fill="#FCE2D7" stroke="#2B2B2B" stroke-linecap="round" stroke-linejoin="round"/>
<path d="M85.7278 285.733C82.0292 283.381 77.5348 285.226 76.1096 284.754C74.2296 284.133 72.8481 277.251 72.8481 277.251C72.8481 277.251 71.519 285.558 66.4301 284.247C63.9906 283.608 62.8276 283.914 62.4429 284.395C62.4429 284.797 62.3992 285.217 62.4429 285.637C62.4954 291.845 66.5612 302.924 73.0055 302.005C78.9426 301.14 85.3781 292.982 85.7278 285.733Z" fill="#FCE2D7" stroke="#2B2B2B" stroke-linecap="round" stroke-linejoin="round"/>
<path d="M108.925 281.317C108.436 288.645 104.475 297.424 96.8763 299.269C89.0068 301.192 85.6492 290.595 85.8065 284.553C85.9902 276.806 91.5862 267.642 98.1179 266.304C104.65 264.966 109.354 274.829 108.925 281.317Z" fill="#FCE2D7" stroke="#2B2B2B" stroke-linecap="round" stroke-linejoin="round"/>
<path d="M108.82 282.489C105.847 280.583 102.499 282.542 100.951 281.912C98.9485 281.09 97.3659 274.462 97.3659 274.462C97.3659 274.462 96.4915 283.329 90.4495 282.716C87.5203 282.428 86.2961 282.795 85.8502 283.32C85.8502 283.731 85.789 284.15 85.7802 284.579C85.6054 290.647 88.9193 301.192 96.85 299.295C104.099 297.529 108.077 289.484 108.82 282.489Z" fill="#FCE2D7" stroke="#2B2B2B" stroke-linecap="round" stroke-linejoin="round"/>
<path d="M129.753 273.168C128.739 281.116 124.358 289.851 117.643 293.638C112.545 296.514 108.523 290.14 108.899 281.317C109.231 273.999 113.07 265.657 120.266 262.798C126.527 260.306 130.811 264.826 129.753 273.168Z" fill="#FCE2D7" stroke="#2B2B2B" stroke-linecap="round" stroke-linejoin="round"/>
<path d="M129.587 274.27C127.419 273.396 123.764 276.377 122.417 276.395C120.668 276.395 119.374 270.431 119.374 270.431C119.374 270.431 117.477 278.301 112.773 279.018C110.508 279.359 109.406 279.56 109.022 280.102C109.022 280.504 108.943 280.907 108.925 281.317C108.462 290.158 112.528 296.514 117.669 293.638C124.061 290.035 128.276 281.833 129.587 274.27Z" fill="#FCE2D7" stroke="#2B2B2B" stroke-linecap="round" stroke-linejoin="round"/>
<path d="M27.3362 304.725C28.3505 313.206 24.372 318.61 19.764 315.698C13.6433 311.825 9.09649 303.457 7.304 296.226C5.35411 288.356 8.72926 283.232 14.5527 285.733C21.95 288.811 26.4006 296.882 27.3362 304.725Z" fill="#FCE2D7" stroke="#2B2B2B" stroke-linecap="round" stroke-linejoin="round"/>
<path d="M27.4237 305.818C23.9262 302.993 21.0757 303.334 19.5018 302.075C17.4295 300.423 14.8588 293.06 14.8588 293.06C14.8588 293.06 15.3572 299.566 10.4868 296.488C8.12598 295.01 7.30406 294.879 7.11169 295.15C7.18165 295.509 7.24286 295.867 7.33904 296.226C9.08782 303.483 13.6696 311.825 19.7991 315.698C24.171 318.488 27.9396 313.766 27.4237 305.818Z" fill="#FCE2D7" stroke="#2B2B2B" stroke-linecap="round" stroke-linejoin="round"/>
<path d="M50.1665 306.613C50.4288 315.357 44.7802 322.422 39.5601 321.574C32.565 320.438 28.1406 311.519 27.3187 304.725C26.3219 296.217 31.2622 289.248 37.3479 290.149C44.8939 291.233 49.9479 299.041 50.1665 306.613Z" fill="#FCE2D7" stroke="#2B2B2B" stroke-linecap="round" stroke-linejoin="round"/>
<path d="M50.1665 307.75C46.5028 305.547 43.0052 307.129 41.3526 306.29C39.1754 305.197 37.0856 298.053 37.0856 298.053C37.0856 298.053 36.4036 305.171 31.1485 303.641C28.6216 302.906 27.5723 303.125 27.2488 303.544C27.2488 303.938 27.2488 304.331 27.3362 304.725C28.1406 311.519 32.5301 320.464 39.5776 321.574C44.5529 322.387 50.0003 316.004 50.1665 307.75Z" fill="#FCE2D7" stroke="#2B2B2B" stroke-linecap="round" stroke-linejoin="round"/>
<path d="M72.4809 306.972C71.9563 315.777 67.2346 322.921 61.9882 322.405C54.862 321.705 50.4113 313.469 50.1927 306.605C49.9654 299.373 54.5647 289.991 62.1107 290.577C69.2544 291.163 72.9006 299.977 72.4809 306.972Z" fill="#FCE2D7" stroke="#2B2B2B" stroke-linecap="round" stroke-linejoin="round"/>
<path d="M72.4021 308.135C69.8227 306.036 66.3513 307.584 64.9873 306.788C63.1773 305.739 61.4285 298.613 61.4285 298.613C61.4285 298.613 60.6241 306.071 54.5908 304.856C51.6791 304.27 50.5686 304.856 50.2189 305.398C50.2189 305.8 50.2189 306.203 50.2189 306.613C50.4375 313.486 54.8881 321.714 62.0144 322.414C67.0683 322.912 71.6764 316.59 72.4021 308.135Z" fill="#FCE2D7" stroke="#2B2B2B" stroke-linecap="round" stroke-linejoin="round"/>
<path d="M96.0544 304.349C94.8653 311.152 90.7294 321.321 82.8249 322.046C76.7042 322.606 72.1399 315.847 72.4809 306.946C72.7782 299.374 76.3282 289.808 85.2732 289.589C92.4957 289.484 97.1387 298.132 96.0544 304.349Z" fill="#FCE2D7" stroke="#2B2B2B" stroke-linecap="round" stroke-linejoin="round"/>
<path d="M95.9232 305.564C92.994 304.025 89.409 306.377 87.8089 305.783C85.6841 304.987 84.2064 297.852 84.2064 297.852C84.2064 297.852 81.0848 305.179 76.1008 304.9C73.705 304.769 72.9443 305.214 72.6033 305.774C72.6033 306.185 72.5333 306.596 72.5071 307.007C72.1136 315.961 76.6954 322.65 82.8511 322.108C90.3533 321.417 94.7777 312.454 95.9232 305.564Z" fill="#FCE2D7" stroke="#2B2B2B" stroke-linecap="round" stroke-linejoin="round"/>
<path d="M116.462 298.525C114.941 305.722 110.342 314.999 103.557 317.762C98.8348 319.668 95.1274 313.442 96.0543 304.41C96.7975 297.135 100.671 287.797 108.296 286.284C113.857 285.112 118.246 290.096 116.462 298.525Z" fill="#FCE2D7" stroke="#2B2B2B" stroke-linecap="round" stroke-linejoin="round"/>
<path d="M116.209 299.645C113.804 298.831 110.595 301.726 109.345 301.393C107.692 300.974 106.975 294.32 106.975 294.32C106.975 294.32 105.227 302.137 100.181 301.953C97.7332 301.857 96.6839 302.504 96.2292 303.116C96.1593 303.536 96.0981 303.99 96.0544 304.375C95.0838 313.442 98.7999 319.616 103.557 317.727C110.088 315.147 114.399 306.474 116.209 299.645Z" fill="#FCE2D7" stroke="#2B2B2B" stroke-linecap="round" stroke-linejoin="round"/>
<path d="M40.3296 326.051C41.204 333.973 38.677 339.849 34.4974 337.864C28.1843 334.874 23.2003 326.934 21.163 320.088C18.9595 312.664 22.4746 308.257 28.2193 309.464C35.3368 310.959 39.5864 319.135 40.3296 326.051Z" fill="#FCE2D7" stroke="#2B2B2B" stroke-linecap="round" stroke-linejoin="round"/>
<path d="M40.3996 327.083C37.3131 324.687 34.5325 325.579 33.0898 324.661C31.1836 323.445 28.6129 316.791 28.6129 316.791C28.6129 316.791 28.8665 323.472 24.1185 320.499C21.8364 319.065 21.0932 318.864 20.9095 319.117C20.9882 319.458 21.0669 319.799 21.1631 320.149C23.2004 326.995 28.1582 334.935 34.4975 337.925C38.4935 339.762 40.8368 334.419 40.3996 327.083Z" fill="#FCE2D7" stroke="#2B2B2B" stroke-linecap="round" stroke-linejoin="round"/>
<path d="M62.1631 326.917C61.892 334.891 58.447 340.662 52.7547 340.461C47.0624 340.26 41.1865 333.982 40.3296 326.051C39.4727 318.12 44.1944 311.431 50.7086 311.423C58.3945 311.405 62.3904 320.018 62.1631 326.917Z" fill="#FCE2D7" stroke="#2B2B2B" stroke-linecap="round" stroke-linejoin="round"/>
<path d="M62.0931 327.957C59.3562 325.684 55.9723 327.004 54.3897 326.366C52.3087 325.492 50.2713 319.056 50.2713 319.056C50.2713 319.056 49.3969 326.165 44.002 324.923C41.3788 324.329 40.5044 324.556 40.2509 324.967C40.2509 325.325 40.2509 325.684 40.3295 326.06C41.2039 333.991 47.0711 340.269 52.7546 340.47C58.202 340.653 61.5335 335.407 62.0931 327.957Z" fill="#FCE2D7" stroke="#2B2B2B" stroke-linecap="round" stroke-linejoin="round"/>
<path d="M82.5013 326.646C81.2072 334.821 74.011 341.257 70.1724 341.222C66.3338 341.187 61.9444 334.944 62.163 326.917C62.3816 318.89 67.5142 312.314 72.5157 311.851C77.5172 311.388 83.7953 318.461 82.5013 326.646Z" fill="#FCE2D7" stroke="#2B2B2B" stroke-linecap="round" stroke-linejoin="round"/>
<path d="M82.2914 327.695C79.371 325.745 74.8853 327.459 73.7049 326.899C72.1485 326.156 71.4927 319.633 71.4927 319.633C71.4927 319.633 69.3942 326.794 65.4769 325.649C63.5882 325.089 62.5652 325.378 62.2242 325.815C62.2242 326.182 62.1717 326.55 62.163 326.917C61.9444 334.944 66.3338 341.187 70.1724 341.222C73.8448 341.257 80.6388 335.346 82.2914 327.695Z" fill="#FCE2D7" stroke="#2B2B2B" stroke-linecap="round" stroke-linejoin="round"/>
<path d="M102.612 322.064C100.584 328.604 95.897 336.482 89.4964 338.835C85.0021 340.478 81.181 334.804 82.5013 326.646C83.6905 319.222 88.7182 311.519 95.8008 309.254C101.449 307.453 105.034 314.282 102.612 322.064Z" fill="#FCE2D7" stroke="#2B2B2B" stroke-linecap="round" stroke-linejoin="round"/>
<path d="M102.28 323.087C100.313 322.003 97.0336 324.267 95.8619 323.961C94.2968 323.533 93.9907 317.29 93.9907 317.29C93.9907 317.29 91.9622 325.037 86.7945 324.792C84.3113 324.678 83.1746 325.046 82.7199 325.526C82.6412 325.902 82.5625 326.278 82.5013 326.663C81.2072 334.839 84.661 340.33 89.4964 338.852C94.1744 337.418 99.6743 330.58 102.28 323.087Z" fill="#FCE2D7" stroke="#2B2B2B" stroke-linecap="round" stroke-linejoin="round"/>
<path d="M118.99 312.017C115.451 319.008 110.672 325.298 104.886 330.58C101.388 333.632 100.269 329.977 102.612 322.099C104.781 314.841 109.109 306.815 115.728 303.09C120.8 300.204 122.758 304.681 118.99 312.017Z" fill="#FCE2D7" stroke="#2B2B2B" stroke-linecap="round" stroke-linejoin="round"/>
<path d="M118.474 312.996C117.494 312.795 114.355 315.856 113.516 316.013C112.397 316.214 113.201 310.767 113.201 310.767C113.201 310.767 110.158 318.094 106.267 319.318C104.396 319.913 103.408 320.429 102.971 320.988C102.848 321.356 102.726 321.723 102.612 322.09C100.26 329.96 101.406 333.623 104.886 330.572C110.254 325.832 114.889 319.406 118.474 312.996Z" fill="#FCE2D7" stroke="#2B2B2B" stroke-linecap="round" stroke-linejoin="round"/>
</svg>
