<svg width="293" height="296" viewBox="0 0 293 296" fill="none" xmlns="http://www.w3.org/2000/svg">
<path d="M169.19 77.9535C167.097 64.4576 159.495 56.5208 159.495 56.5208C150.247 50.4443 142.937 57.1923 142.937 57.1923C142.937 57.1923 135.626 50.4443 126.378 56.5208C126.378 56.5208 118.766 64.4466 116.683 77.9535C114.59 91.4495 122.796 97.3608 122.796 97.3608H163.087C163.087 97.3608 171.293 91.4605 169.2 77.9535H169.19Z" fill="#2B2B2B" stroke="#2B2B2B" stroke-linecap="round" stroke-linejoin="round"/>
<path d="M174.418 93.0458C174.418 93.0458 191.638 91.2845 198.179 103.966C204.721 116.636 222.778 174.737 221.221 177.907C219.663 181.077 208.459 181.077 204.409 177.555C200.36 174.032 181.991 138.828 181.991 138.828L174.427 93.0568L174.418 93.0458Z" fill="white" stroke="#2B2B2B" stroke-linecap="round" stroke-linejoin="round"/>
<path d="M178.399 109.283C178.399 109.283 185.69 130.792 187.257 148.174L181.991 138.828L178.399 109.283Z" fill="#2B2B2B" stroke="#2B2B2B" stroke-linecap="round" stroke-linejoin="round"/>
<path d="M187.442 207.838C184.415 197.27 175.021 175.793 175.021 174.384C175.021 172.975 182.896 146.919 182.896 135.306C182.896 123.692 174.418 93.0567 174.418 93.0567C174.418 93.0567 161.461 90.6569 158.473 86.8261C155.484 82.9953 155.961 63.8192 155.961 63.8192L142.907 62.08L129.854 63.8192C129.854 63.8192 130.321 82.9953 127.342 86.8261C124.354 90.6569 111.397 93.0567 111.397 93.0567C111.397 93.0567 102.918 123.692 102.918 135.306C102.918 146.919 110.794 172.986 110.794 174.384C110.794 175.782 101.4 197.27 98.3725 207.838C95.3451 218.406 92.6195 238.826 92.3177 248.326L142.917 283.188L193.516 248.326C193.215 238.815 190.489 218.395 187.462 207.838H187.442Z" fill="white" stroke="#2B2B2B" stroke-linecap="round" stroke-linejoin="round"/>
<path d="M140.464 72.7357L154.744 76.0272L154.423 63.3899L140.464 72.7357Z" fill="#2B2B2B" stroke="#2B2B2B" stroke-linecap="round" stroke-linejoin="round"/>
<path d="M122.777 97.3608C122.777 97.3608 135.938 96.5682 138.624 96.7884" stroke="#2B2B2B" stroke-linecap="round" stroke-linejoin="round"/>
<path d="M163.067 97.3609L149.205 96.4252C149.205 96.4252 145.682 97.1517 145.682 99.6836" stroke="#2B2B2B" stroke-linecap="round" stroke-linejoin="round"/>
<path d="M162.551 10.8483C161.159 8.53664 159.358 6.77535 156.74 5.19019C154.482 3.82519 152.028 2.84545 149.546 2.0969C141.106 -0.467981 127.05 1.71163 122.261 10.8814C118.27 18.521 117.968 21.5482 118.708 28.6594C119.447 35.7706 123.439 60.6489 126.992 64.92C130.545 69.1912 138.537 72.7358 140.454 72.7358H144.299C146.227 72.7358 154.209 69.1802 157.762 64.92C161.315 60.6489 165.306 35.7706 166.046 28.6594C166.523 24.069 166.046 19.4567 164.508 15.1415C163.924 13.5123 163.291 12.1033 162.542 10.8483H162.551Z" fill="white" stroke="#2B2B2B" stroke-linecap="round" stroke-linejoin="round"/>
<path d="M128.841 36.4531C128.841 36.4531 133.309 38.8859 137.933 35.5175" stroke="#2B2B2B" stroke-linecap="round" stroke-linejoin="round"/>
<path d="M138.926 25.412C138.926 25.412 131.479 20.7335 127.352 28.219" stroke="#2B2B2B" stroke-width="2" stroke-linecap="round" stroke-linejoin="round"/>
<path d="M157.12 36.4531C157.12 36.4531 152.651 38.8859 148.028 35.5175" stroke="#2B2B2B" stroke-linecap="round" stroke-linejoin="round"/>
<path d="M147.025 25.412C147.025 25.412 154.472 20.7335 158.599 28.219" stroke="#2B2B2B" stroke-width="2" stroke-linecap="round" stroke-linejoin="round"/>
<path d="M147.025 29.9033C147.025 29.9033 144.543 37.9502 145.536 38.6988C146.529 39.4473 147.852 41.1316 147.19 43.1901C146.529 45.2486 144.874 45.81 144.377 45.81" stroke="#2B2B2B" stroke-linecap="round" stroke-linejoin="round"/>
<path d="M145.049 55.1558C145.049 56.1906 144.416 57.0272 143.647 57.0272C142.878 57.0272 142.245 56.1906 142.245 55.1558C142.245 54.1211 142.878 53.2844 143.647 53.2844C144.416 53.2844 145.049 54.1211 145.049 55.1558Z" fill="#2B2B2B"/>
<path d="M164.527 15.868C163.943 14.1507 163.311 12.6646 162.561 11.3547C161.169 8.92189 159.368 7.07254 156.75 5.41032C154.491 3.97927 152.038 2.9445 149.556 2.15192C141.983 -0.269862 132.044 1.06212 125.804 6.76431C118.922 13.0499 116.916 25.6101 119.506 34.8019C120.771 34.2185 121.647 32.6994 121.608 31.1582C121.56 29.0557 120.012 27.2393 120.061 25.1368C120.109 23.1113 121.579 21.5592 122.67 19.952C125.298 16.0771 126.252 10.5951 129.902 7.9862C131.956 6.51112 134.526 6.26894 136.95 6.42306C138.975 6.55515 140.98 6.96246 143.014 6.99548C144.698 7.0175 146.198 6.40103 147.872 6.25793C151.201 5.98272 154.618 7.44681 156.691 10.463C159.261 14.2058 160.478 19.0713 163.048 22.0545C165.618 25.0487 163.505 27.2944 162.746 30.4757C162.094 33.2167 164.703 34.8459 165.433 35.2422C165.725 33.1397 165.939 31.3564 166.065 30.1014C166.542 25.2799 166.065 20.4253 164.527 15.879V15.868Z" fill="#2B2B2B" stroke="#2B2B2B" stroke-linecap="round" stroke-linejoin="round"/>
<path d="M119.496 34.7909C119.496 34.7909 117.092 32.3361 115.106 34.7579C113.12 37.1907 114.444 42.4305 115.602 44.6652C116.761 46.8998 122.056 49.5308 122.056 49.5308L119.496 34.7799V34.7909Z" fill="white" stroke="#2B2B2B" stroke-linecap="round" stroke-linejoin="round"/>
<path d="M165.627 34.7909C165.627 34.7909 168.149 32.4792 170.008 35.0331C171.867 37.587 170.3 42.7278 169.034 44.8963C167.769 47.0649 162.678 49.1345 162.678 49.1345L165.627 34.7799V34.7909Z" fill="white" stroke="#2B2B2B" stroke-linecap="round" stroke-linejoin="round"/>
<path d="M92.3079 248.326L151.006 290.938L193.497 248.326C193.263 240.917 191.55 226.871 189.37 216.039C137.456 223.414 106.228 218.505 96.3477 216.402C94.2061 227.19 92.5318 240.994 92.2982 248.326H92.3079Z" fill="#285E67" stroke="#285E67" stroke-linecap="round" stroke-linejoin="round"/>
<path d="M95.7344 219.749C142.245 229.084 179.1 221.631 189.944 218.923C189.175 214.74 188.328 210.876 187.452 207.838C184.425 197.27 175.031 175.793 175.031 174.384C175.031 172.975 182.906 146.919 182.906 135.306C182.906 123.692 174.427 93.0566 174.427 93.0566C174.427 93.0566 170.738 92.3742 166.844 91.1523C167.058 101.5 166.075 138.245 140.902 134.601C116.245 131.046 118.328 100.498 119.593 90.9541C115.486 92.2971 111.417 93.0456 111.417 93.0456C111.417 93.0456 102.938 123.681 102.938 135.295C102.938 146.908 110.813 172.975 110.813 174.373C110.813 175.771 101.419 197.259 98.3919 207.827C97.4672 211.063 96.5619 215.235 95.7539 219.738L95.7344 219.749Z" fill="#FCE2D7" stroke="#2B2B2B" stroke-linecap="round" stroke-linejoin="round"/>
<path d="M133.776 217.393C133.776 217.393 158.2 208.19 160.585 206.176C162.97 204.15 166.241 202.477 166.241 202.477L184.103 198.778L182.02 193.054C182.02 193.054 160.877 197.435 155.523 200.462C150.159 203.49 133.776 217.404 133.776 217.404V217.393Z" fill="#2B2B2B" stroke="#2B2B2B" stroke-linecap="round" stroke-linejoin="round"/>
<path d="M123.886 172.172L163.311 154.779" stroke="#2B2B2B" stroke-linecap="round" stroke-linejoin="round"/>
<path d="M160.429 161.296L146.967 166.734" stroke="#2B2B2B" stroke-linecap="round" stroke-linejoin="round"/>
<path d="M111.397 93.0456C111.397 93.0456 97.6034 90.9321 87.9469 102.204C78.2904 113.477 61.7906 143.749 61.7906 148.681C61.7906 153.612 73.6179 154.669 81.0939 150.442C88.5699 146.215 103.824 123.681 103.824 123.681L111.387 93.0456H111.397Z" fill="white" stroke="#2B2B2B" stroke-linecap="round" stroke-linejoin="round"/>
<path d="M206.395 160.129C205.431 160.074 200.321 163.343 195.833 166.624C190.1 170.818 172.996 184.952 165.832 186.35C158.667 187.759 155.864 187.055 155.864 187.055C155.864 187.055 147.414 182.828 145.234 182.475C143.053 182.123 139.432 183.345 136.473 183.906C133.514 184.468 131.538 183.631 131.664 184.6C131.791 185.58 131.907 187.11 133.884 187.671C135.86 188.233 138.819 187.946 138.819 187.946C138.819 187.946 141.778 188.089 142.275 188.222C142.771 188.365 122.903 198.679 122.903 198.679C122.903 198.679 122.66 199.241 123.516 199.791C124.383 200.353 133.767 198.151 133.767 198.151L134.127 199.373C134.127 199.373 121.424 205.647 121.17 206.209C120.927 206.77 121.044 208.025 121.91 208.025C122.777 208.025 134.838 203.743 134.838 203.743L135.11 205.097C135.11 205.097 125.493 212.208 125.239 212.627C124.996 213.045 125.239 214.3 126.106 214.157C126.972 214.014 137.203 209.137 137.203 209.137L137.622 209.996C137.622 209.996 132.015 216.116 132.141 216.677C132.268 217.239 133.007 217.932 133.747 217.371C134.487 216.81 142.878 211.647 142.878 211.647C142.878 211.647 154.842 206.341 155.582 206.066C156.321 205.79 164.586 199.923 164.586 199.923C164.586 199.923 191.482 195.883 202.823 189.466C214.173 183.048 221.045 180.802 221.191 177.885C221.328 174.968 218.612 166.591 218.612 166.591" fill="white"/>
<path d="M206.395 160.129C205.431 160.074 200.321 163.343 195.833 166.624C190.1 170.818 172.996 184.952 165.832 186.35C158.667 187.759 155.864 187.055 155.864 187.055C155.864 187.055 147.414 182.828 145.234 182.475C143.053 182.123 139.432 183.345 136.473 183.906C133.514 184.468 131.538 183.631 131.664 184.6C131.791 185.58 131.907 187.11 133.884 187.671C135.86 188.233 138.819 187.946 138.819 187.946C138.819 187.946 141.778 188.089 142.275 188.222C142.771 188.365 122.903 198.679 122.903 198.679C122.903 198.679 122.66 199.241 123.516 199.791C124.383 200.353 133.767 198.151 133.767 198.151L134.127 199.373C134.127 199.373 121.424 205.647 121.17 206.209C120.927 206.77 121.044 208.025 121.91 208.025C122.777 208.025 134.838 203.743 134.838 203.743L135.11 205.097C135.11 205.097 125.493 212.208 125.239 212.627C124.996 213.045 125.239 214.3 126.106 214.157C126.972 214.014 137.203 209.137 137.203 209.137L137.622 209.996C137.622 209.996 132.015 216.116 132.141 216.677C132.268 217.239 133.007 217.932 133.747 217.371C134.487 216.81 142.878 211.647 142.878 211.647C142.878 211.647 154.842 206.341 155.582 206.066C156.321 205.79 164.586 199.923 164.586 199.923C164.586 199.923 191.482 195.883 202.823 189.466C214.173 183.048 221.045 180.802 221.191 177.885C221.328 174.968 218.612 166.591 218.612 166.591" stroke="#2B2B2B" stroke-linecap="round" stroke-linejoin="round"/>
<path d="M67.4268 136.671C67.4268 136.671 80.1691 128.723 96.8636 122.426C113.558 116.13 124.393 112.156 134.497 107.026C144.601 101.896 143.141 103.547 143.579 103.547C144.017 103.547 156.467 106.531 157.343 106.696C158.22 106.861 170.962 111.991 170.962 111.991C170.962 111.991 171.108 113.477 169.94 113.983L168.772 114.478C168.772 114.478 168.042 115.964 166.864 116.13C165.696 116.295 162.912 116.79 162.473 116.79C162.035 116.79 160.273 117.781 158.521 118.276C156.769 118.772 154.861 119.267 153.839 119.432C152.817 119.597 147.687 119.927 147.687 119.927C147.687 119.927 143.589 121.083 139.189 121.248C134.799 121.413 129.231 120.588 129.231 120.588C129.231 120.588 86.3213 154.372 81.0452 157.85C75.7692 161.329 70.3569 164.972 65.9569 163.651C61.5667 162.33 58.4906 160.668 59.2207 156.529C59.9508 152.39 61.7127 143.782 67.4171 136.66L67.4268 136.671Z" fill="white" stroke="#2B2B2B" stroke-linecap="round" stroke-linejoin="round"/>
<path d="M145.623 106.861C145.623 106.861 154.851 108.182 157.188 108.347C159.534 108.512 170.952 111.99 170.952 111.99" stroke="#2B2B2B" stroke-linecap="round" stroke-linejoin="round"/>
<path d="M146.363 111L160.127 111.671L168.762 114.478" stroke="#2B2B2B" stroke-linecap="round" stroke-linejoin="round"/>
<path d="M146.207 114.809L153.537 115.315L162.464 116.801" stroke="#2B2B2B" stroke-linecap="round" stroke-linejoin="round"/>
<path d="M163.973 274.008C163.973 274.008 177.533 252.399 190.304 242.524C203.076 232.65 229.68 224.317 251.582 234.191C273.485 244.066 289.391 268.14 291.211 271.542C293.031 274.932 291.474 282.957 288.865 286.975C286.256 290.993 279.744 295 276.346 295H117.306C117.306 295 116.527 291.609 119.136 288.824C121.745 286.05 137.125 280.183 140.26 278.334C143.384 276.484 147.035 265.366 153.041 263.209C159.047 261.051 163.992 274.008 163.992 274.008H163.973Z" fill="#285E67" stroke="#285E67" stroke-linecap="round" stroke-linejoin="round"/>
<path d="M262.105 295H117.734C117.734 295 116.955 291.609 119.545 288.824C122.124 286.05 137.359 280.183 140.464 278.334C143.56 276.484 147.181 265.366 153.119 263.209C159.057 261.051 163.963 274.007 163.963 274.007C163.963 274.007 165.511 276.473 168.1 278.191C170.68 279.908 174.992 281.79 175.849 281.79C176.705 281.79 195.23 279.049 204.701 273.897C214.173 268.757 227.811 258.464 238.859 257.088C249.908 255.712 258.951 261.888 264.548 266.346" fill="#285E67"/>
<path d="M262.105 295H117.734C117.734 295 116.955 291.609 119.545 288.824C122.124 286.05 137.359 280.183 140.464 278.334C143.56 276.484 147.181 265.366 153.119 263.209C159.057 261.051 163.963 274.007 163.963 274.007C163.963 274.007 165.511 276.473 168.1 278.191C170.68 279.908 174.992 281.79 175.849 281.79C176.705 281.79 195.23 279.049 204.701 273.897C214.173 268.757 227.811 258.464 238.859 257.088C249.908 255.712 258.951 261.888 264.548 266.346" stroke="#285E67" stroke-linecap="round" stroke-linejoin="round"/>
<path d="M268.851 271.498C268.851 271.498 264.402 277.156 260.1 278.014C255.797 278.873 240.29 276.132 235.121 274.756" stroke="white" stroke-linecap="round" stroke-linejoin="round"/>
<path d="M175.839 281.79C176.695 281.79 195.22 279.049 204.692 273.897C214.163 268.757 227.801 258.464 238.85 257.088C249.898 255.712 258.941 261.888 264.539 266.346" stroke="white" stroke-linecap="round" stroke-linejoin="round"/>
<path d="M175.527 281.746L174.31 295H117.734C117.734 295 116.955 291.609 119.545 288.824C122.124 286.05 137.359 280.183 140.464 278.334C143.56 276.484 147.181 265.366 153.119 263.209C159.057 261.051 163.963 274.007 163.963 274.007C163.963 274.007 165.511 276.473 168.1 278.191C170.456 279.754 174.233 281.46 175.537 281.746H175.527Z" fill="white" stroke="#285E67" stroke-linecap="round" stroke-linejoin="round"/>
<path d="M135.022 274.008C135.022 274.008 120.83 252.399 107.455 242.524C94.0796 232.65 66.2392 224.317 43.3147 234.191C20.3902 244.066 3.74436 268.14 1.82669 271.542C-0.0812556 274.932 1.55412 282.957 4.27975 286.975C7.00538 290.982 13.8292 295 17.3823 295H183.87C183.87 295 184.687 291.609 181.962 288.824C179.236 286.05 163.126 280.183 159.855 278.334C156.584 276.484 152.759 265.366 146.48 263.209C140.201 261.051 135.013 274.008 135.013 274.008H135.022Z" fill="#285E67" stroke="#285E67" stroke-linecap="round" stroke-linejoin="round"/>
<path d="M31.2927 295H183.87C183.87 295 184.687 291.609 181.962 288.824C179.236 286.05 163.126 280.183 159.855 278.334C156.584 276.484 152.759 265.366 146.48 263.209C140.201 261.051 135.013 274.007 135.013 274.007C135.013 274.007 133.377 276.473 130.642 278.191C127.907 279.908 123.361 281.79 122.455 281.79C121.55 281.79 101.974 279.049 91.9672 273.897C81.9505 268.757 67.5436 258.464 55.8623 257.088C44.181 255.712 34.6219 261.888 28.7131 266.346" fill="#285E67"/>
<path d="M31.2927 295H183.87C183.87 295 184.687 291.609 181.962 288.824C179.236 286.05 163.126 280.183 159.855 278.334C156.584 276.484 152.759 265.366 146.48 263.209C140.201 261.051 135.013 274.007 135.013 274.007C135.013 274.007 133.377 276.473 130.642 278.191C127.907 279.908 123.361 281.79 122.455 281.79C121.55 281.79 101.974 279.049 91.9672 273.897C81.9505 268.757 67.5436 258.464 55.8623 257.088C44.181 255.712 34.6219 261.888 28.7131 266.346" stroke="#285E67" stroke-linecap="round" stroke-linejoin="round"/>
<path d="M24.1671 271.498C24.1671 271.498 28.8688 277.156 33.4245 278.014C37.9705 278.873 54.3535 276.132 59.8145 274.756" stroke="white" stroke-linecap="round" stroke-linejoin="round"/>
<path d="M122.455 281.79C121.55 281.79 101.974 279.049 91.9672 273.897C81.9505 268.757 67.5436 258.464 55.8623 257.088C44.181 255.712 34.6219 261.888 28.7131 266.346" stroke="white" stroke-linecap="round" stroke-linejoin="round"/>
<path d="M122.786 281.746L124.071 295H183.86C183.86 295 184.678 291.609 181.952 288.824C179.226 286.05 163.116 280.183 159.845 278.334C156.574 276.484 152.749 265.366 146.47 263.209C140.191 261.051 135.003 274.007 135.003 274.007C135.003 274.007 133.368 276.473 130.632 278.191C128.14 279.754 124.149 281.46 122.767 281.746H122.786Z" fill="white" stroke="#285E67" stroke-linecap="round" stroke-linejoin="round"/>
<path d="M96.2796 237.549C96.2796 237.549 115.583 243.68 132.287 262.075" stroke="white" stroke-linecap="round" stroke-linejoin="round"/>
<path d="M190.314 242.524C190.314 242.524 173.493 250.296 159.397 261.579" stroke="white" stroke-linecap="round" stroke-linejoin="round"/>
</svg>
