<svg width="26" height="30" viewBox="0 0 26 30" fill="none" xmlns="http://www.w3.org/2000/svg">
<path d="M25.7815 28.3109L24.2918 26.649C24.3925 24.4391 24.5588 13.6089 18.6657 7.03414C13.5663 1.34524 5.48153 0.731079 2.24217 0.731079C1.31494 0.731079 0.757702 0.780178 0.734577 0.782259C0.3698 0.815131 0.079992 1.13802 0.0508994 1.54497C0.0136011 2.06468 -0.792041 14.3571 5.65496 21.5489C10.7544 27.2378 18.8399 27.8516 22.0793 27.8516C22.5858 27.8516 22.9766 27.837 23.2359 27.8237L24.7271 29.4872C24.8725 29.6499 25.0635 29.7311 25.2545 29.7311C25.4454 29.7311 25.6364 29.6499 25.7819 29.4872C26.0728 29.1623 26.0728 28.6359 25.7815 28.3109ZM6.70938 20.3722C1.60847 14.6816 1.44548 5.10927 1.50889 2.40712C1.71254 2.40047 1.95908 2.39589 2.24217 2.39589C5.29578 2.39589 12.9057 2.96262 17.6109 8.21129C22.133 13.2561 22.7737 21.3492 22.817 25.0034L17.3129 18.8634L18.0059 12.237C18.0537 11.7806 17.7605 11.3674 17.3517 11.3141C16.9392 11.2617 16.5722 11.5879 16.5244 12.044L15.9683 17.363L12.2001 13.1595L11.6175 8.24041C11.5634 7.78478 11.1867 7.46272 10.7801 7.52431C10.3717 7.58464 10.0841 8.00282 10.1382 8.45845L10.4657 11.2251L6.0962 6.35008C5.80528 6.0251 5.33233 6.0251 5.04141 6.35008C4.75011 6.67505 4.75011 7.20183 5.04141 7.5268L9.41053 12.401L6.93131 12.0356C6.52289 11.9757 6.14767 12.2961 6.09396 12.7518C6.03988 13.2074 6.32745 13.6256 6.73587 13.6859L11.1445 14.3358L14.9128 18.5393L10.1453 19.1597C9.73614 19.2129 9.44335 19.6261 9.49109 20.0826C9.53547 20.5066 9.85773 20.8187 10.2311 20.8187C10.2598 20.8187 10.2889 20.817 10.3184 20.8128L16.2577 20.0401L21.7667 26.1859C18.5337 26.1456 11.2616 25.4507 6.70938 20.3722Z" fill="white"/>
</svg>
