<svg width="22" height="20" viewBox="0 0 22 20" fill="none" xmlns="http://www.w3.org/2000/svg">
<path d="M21.2344 0.733516L21.9678 0.685116C21.9583 0.541148 21.9065 0.403187 21.8189 0.288505C21.7314 0.173823 21.6119 0.0875157 21.4756 0.0403892C21.3392 -0.00673728 21.192 -0.0125891 21.0523 0.0235662C20.9126 0.0597216 20.7867 0.136278 20.6903 0.24365L21.2344 0.733516ZM20.504 5.07338C20.504 4.87889 20.4268 4.69237 20.2893 4.55484C20.1517 4.41731 19.9652 4.34005 19.7707 4.34005C19.5762 4.34005 19.3897 4.41731 19.2522 4.55484C19.1146 4.69237 19.0374 4.87889 19.0374 5.07338H20.504ZM0.733378 16.8668V16.1335C0.575915 16.1333 0.422572 16.1838 0.296033 16.2775C0.169494 16.3712 0.0764805 16.5032 0.0307512 16.6539C-0.014978 16.8046 -0.0109936 16.966 0.0421149 17.1142C0.0952234 17.2624 0.194635 17.3896 0.325644 17.477L0.733378 16.8668ZM2.19711 0.733516L2.88498 0.47685C2.83499 0.342955 2.74697 0.226584 2.63173 0.142045C2.51649 0.0575066 2.37906 0.00848411 2.23633 0.00100502C2.09361 -0.00647407 1.95181 0.0279162 1.82837 0.0999477C1.70492 0.171979 1.60522 0.278512 1.54151 0.40645L2.19711 0.733516ZM8.05498 13.9335L8.57418 14.4513C8.66227 14.3629 8.72635 14.2535 8.76037 14.1335C8.79438 14.0134 8.79721 13.8867 8.76857 13.7652C8.73994 13.6438 8.68079 13.5317 8.59673 13.4395C8.51266 13.3473 8.40646 13.278 8.28818 13.2383L8.05498 13.9335ZM18.6502 2.16058L18.1075 2.65338L18.3715 2.94525L18.7602 2.88658L18.6502 2.16058ZM20.504 0.781916C20.5788 1.92298 20.5084 2.61525 20.3236 3.13738C20.1447 3.64338 19.8308 4.05992 19.2632 4.60405L20.2782 5.66298C20.9206 5.04698 21.4163 4.44272 21.7067 3.62725C21.9898 2.82645 22.0484 1.89952 21.9678 0.685116L20.504 0.781916ZM20.504 6.14112V5.07338H19.0374V6.14258H20.504V6.14112ZM10.252 5.19365V6.60018H11.7187V5.19365H10.252ZM10.252 6.60018V7.33352H11.7187V6.60018H10.252ZM15.4367 0.000183098C14.7551 0.0005682 14.0802 0.135207 13.4506 0.396411C12.821 0.657616 12.249 1.04027 11.7673 1.52253C11.2856 2.00479 10.9036 2.5772 10.6431 3.2071C10.3826 3.83699 10.2487 4.51202 10.2491 5.19365H11.7158C11.7154 4.7045 11.8114 4.22007 11.9983 3.76803C12.1851 3.31598 12.4592 2.90518 12.8049 2.5591C13.1506 2.21302 13.5611 1.93842 14.0129 1.75101C14.4647 1.5636 14.949 1.46704 15.4382 1.46685V0.000183098H15.4367ZM19.0359 6.14112C19.0374 12.4712 13.9143 17.6002 7.59738 17.6002V19.0669C14.7254 19.0669 20.504 13.2794 20.504 6.14112H19.0359ZM1.51071 0.990183C2.30858 3.11978 5.30058 7.33352 10.9854 7.33352V5.86685C6.12191 5.86685 3.55084 2.25885 2.88351 0.47685L1.51071 0.990183ZM1.54151 0.40645C0.00591078 3.48058 -0.230222 6.46378 0.885911 9.00405C1.99911 11.537 4.39418 13.4847 7.82324 14.6287L8.28818 13.2383C5.12751 12.1823 3.12844 10.4634 2.22791 8.41298C1.33031 6.36992 1.46084 3.85165 2.85418 1.06058L1.54151 0.40645ZM7.53578 13.4158C6.65284 14.3002 3.99818 16.1335 0.733378 16.1335V17.6002C4.49684 17.6002 7.50498 15.5234 8.57418 14.4513L7.53578 13.4158ZM19.1943 1.66925C18.7201 1.14338 18.1407 0.723049 17.4936 0.435515C16.8466 0.14798 16.1463 -0.000336456 15.4382 0.000183098V1.46685C16.4956 1.46685 17.4475 1.92298 18.1075 2.65338L19.1943 1.66925ZM18.7602 2.88658C19.9284 2.69572 20.9954 2.1084 21.7815 1.22338L20.6903 0.24365C20.1311 0.875401 19.3722 1.29628 18.5402 1.43605L18.7602 2.88658ZM0.325644 17.477C2.73244 19.0815 5.25511 19.0669 7.59738 19.0669V17.6002C5.20671 17.6002 3.12698 17.584 1.14111 16.2567L0.325644 17.477Z" fill="white"/>
</svg>
