<svg width="21" height="21" viewBox="0 0 21 21" fill="none" xmlns="http://www.w3.org/2000/svg">
<path d="M2.38636 0C1.75485 0.00449848 1.15048 0.257362 0.703921 0.703921C0.257362 1.15048 0.00449848 1.75485 0 2.38636V18.6136C0 19.9185 1.0815 21 2.38636 21H18.6136C19.9185 21 21 19.9185 21 18.6136V2.38636C21 1.0815 19.9185 0 18.6136 0H2.38636ZM2.38636 1.90909H18.6136C18.8857 1.90909 19.0909 2.11432 19.0909 2.38636V18.6136C19.0922 18.6767 19.0808 18.7393 19.0572 18.7978C19.0337 18.8563 18.9986 18.9094 18.954 18.954C18.9094 18.9986 18.8563 19.0337 18.7978 19.0572C18.7393 19.0808 18.6767 19.0922 18.6136 19.0909H2.38636C2.32329 19.0923 2.26059 19.081 2.20203 19.0575C2.14348 19.034 2.09029 18.9989 2.04568 18.9543C2.00108 18.9097 1.96597 18.8565 1.9425 18.798C1.91902 18.7394 1.90766 18.6767 1.90909 18.6136V2.38636C1.90909 2.11432 2.11432 1.90909 2.38636 1.90909ZM5.19082 3.54995C4.97207 3.54468 4.75448 3.5832 4.55084 3.66327C4.3472 3.74334 4.16163 3.86332 4.00505 4.01617C3.84848 4.16901 3.72405 4.35163 3.6391 4.55328C3.55414 4.75493 3.51038 4.97153 3.51038 5.19034C3.51038 5.40915 3.55414 5.62575 3.6391 5.8274C3.72405 6.02905 3.84848 6.21167 4.00505 6.36451C4.16163 6.51736 4.3472 6.63735 4.55084 6.71741C4.75448 6.79748 4.97207 6.836 5.19082 6.83073C5.61902 6.8204 6.02622 6.64304 6.32542 6.33653C6.62462 6.03002 6.79211 5.61867 6.79211 5.19034C6.79211 4.76201 6.62462 4.35066 6.32542 4.04415C6.02622 3.73765 5.61902 3.56028 5.19082 3.54995ZM13.8104 7.90459C12.4425 7.90459 11.5328 8.65391 11.1567 9.366H11.0966V8.11364H8.41145V17.1818H11.2159V12.7069C11.2159 11.5252 11.4507 10.3807 12.916 10.3807C14.3592 10.3807 14.3783 11.7151 14.3783 12.767V17.1818H17.1818V12.2C17.1818 9.76214 16.6625 7.90459 13.8104 7.90459ZM3.81818 8.11364V17.1818H6.65223V8.11364H3.81818Z" fill="white"/>
</svg>
