<svg width="21" height="21" viewBox="0 0 21 21" fill="none" xmlns="http://www.w3.org/2000/svg">
<path d="M20.16 0H0.84C0.375375 0 0 0.373587 0 0.836V20.064C0 20.5264 0.375375 20.9 0.84 20.9H20.16C20.6246 20.9 21 20.5264 21 20.064V0.836C21 0.373587 20.6246 0 20.16 0ZM19.32 19.228H14.4874V12.8065H17.2174L17.6269 9.65319H14.4874V7.63895C14.4874 6.72457 14.742 6.1028 16.0571 6.1028H17.7345V3.2813C17.4431 3.24211 16.4482 3.1559 15.288 3.1559C12.8678 3.1559 11.2114 4.62674 11.2114 7.32545V9.65057H8.47612V12.8039H11.214V19.228H1.68V1.672H19.32V19.228Z" fill="white"/>
</svg>
